<svg width="16" height="16" viewBox="0 0 16 16" fill="none" xmlns="http://www.w3.org/2000/svg">
<path d="M8 10.4C8.22667 10.4 8.4168 10.3232 8.5704 10.1696C8.724 10.016 8.80053 9.82613 8.8 9.6C8.8 9.37333 8.7232 9.1832 8.5696 9.0296C8.416 8.876 8.22613 8.79947 8 8.8C7.77333 8.8 7.5832 8.8768 7.4296 9.0304C7.276 9.184 7.19947 9.37387 7.2 9.6C7.2 9.82667 7.2768 10.0168 7.4304 10.1704C7.584 10.324 7.77387 10.4005 8 10.4ZM7.2 7.2H8.8V2.4H7.2V7.2ZM0 16V1.6C0 1.16 0.1568 0.783201 0.4704 0.469601C0.784 0.156001 1.16053 -0.000531975 1.6 1.35823e-06H14.4C14.84 1.35823e-06 15.2168 0.156801 15.5304 0.470401C15.844 0.784001 16.0005 1.16053 16 1.6V11.2C16 11.64 15.8432 12.0168 15.5296 12.3304C15.216 12.644 14.8395 12.8005 14.4 12.8H3.2L0 16Z" fill="#ABABAB"/>
</svg>
