<svg width="17" height="17" viewBox="0 0 17 17" fill="none" xmlns="http://www.w3.org/2000/svg">
<path d="M8.5 0C13.1946 0 17 3.80545 17 8.5C17 13.1946 13.1946 17 8.5 17C3.80545 17 0 13.1946 0 8.5C0 3.80545 3.80545 0 8.5 0ZM8.4915 6.8H7.65C7.43335 6.80024 7.22497 6.8832 7.06744 7.03192C6.9099 7.18064 6.8151 7.38391 6.8024 7.60019C6.78971 7.81646 6.86007 8.02942 6.99913 8.19556C7.13818 8.36169 7.33542 8.46846 7.55055 8.49405L7.65 8.5V12.7415C7.65 13.1835 7.9849 13.549 8.415 13.5949L8.5085 13.6H8.925C9.10377 13.6 9.27798 13.5436 9.42288 13.4389C9.56777 13.3342 9.67596 13.1865 9.73207 13.0168C9.78817 12.847 9.78934 12.6639 9.7354 12.4935C9.68145 12.3231 9.57515 12.174 9.4316 12.0675L9.35 12.0139V7.6585C9.35 7.2165 9.0151 6.851 8.585 6.8051L8.4915 6.8ZM8.5 4.25C8.27457 4.25 8.05837 4.33955 7.89896 4.49896C7.73955 4.65837 7.65 4.87457 7.65 5.1C7.65 5.32543 7.73955 5.54164 7.89896 5.70104C8.05837 5.86045 8.27457 5.95 8.5 5.95C8.72543 5.95 8.94164 5.86045 9.10104 5.70104C9.26045 5.54164 9.35 5.32543 9.35 5.1C9.35 4.87457 9.26045 4.65837 9.10104 4.49896C8.94164 4.33955 8.72543 4.25 8.5 4.25Z" fill="#ABABAB"/>
</svg>
