<svg width="71" height="127" viewBox="0 0 71 127" fill="none" xmlns="http://www.w3.org/2000/svg">
<path d="M52 11C52 11 50.8335 1.49347 47.8507 0.219739C44.8679 -1.05399 41 3.62547 41 3.62547L52 11Z" fill="url(#paint0_linear_700_2239)"/>
<path d="M26 9.88209C26 10.7673 31.6605 6.38992 30.9359 6.02829C30.2114 5.66666 26.0226 8.87276 26 9.88209Z" fill="#DBD0F7"/>
<path d="M42.9964 2.58205C43.3747 3.37522 45.9129 1.71567 45.5346 1.02622C45.1563 0.336769 42.6121 1.78888 42.9964 2.58205Z" fill="#DBD0F7"/>
<path style="mix-blend-mode:multiply" opacity="0.5" d="M35.5 127C55.1061 127 71 123.418 71 119C71 114.582 55.1061 111 35.5 111C15.8939 111 0 114.582 0 119C0 123.418 15.8939 127 35.5 127Z" fill="url(#paint1_radial_700_2239)"/>
<path d="M22.9586 64.5117C22.8936 64.44 22.7313 64.481 22.6728 64.5577C22.6271 64.641 22.588 64.7264 22.5559 64.8136C22.5304 64.8567 22.4933 64.895 22.4474 64.9259C22.4015 64.9568 22.3477 64.9795 22.2896 64.9926C22.2565 65.0007 22.2213 65.0022 22.1872 64.9968C22.1532 64.9915 22.1214 64.9795 22.0948 64.9619C22.0647 64.9347 22.0465 64.9007 22.0428 64.8647C21.9857 64.6971 21.9857 64.5206 22.0428 64.3531C22.0691 64.2605 22.1314 64.1767 22.2211 64.1135C22.3108 64.0502 22.4233 64.0105 22.5429 64C22.6224 63.9997 22.7006 64.0155 22.77 64.046C22.8394 64.0764 22.8977 64.1205 22.9391 64.174C22.979 64.2284 23 64.2902 23 64.3531C23 64.4159 22.979 64.4777 22.9391 64.5321L22.9586 64.5117Z" fill="#DBD0F7"/>
<path d="M45 82.6323C45 82.6323 44.0075 84.1084 42.6681 85.998C40.507 89.0653 37.4441 93.2265 36.2648 93.9436C35.7045 94.2891 35.379 93.0119 35.1976 91.0543C34.776 86.4377 35.1602 78 35.1602 78C35.1602 78 42.428 79.4918 45 82.6323Z" fill="url(#paint2_linear_700_2239)"/>
<path style="mix-blend-mode:multiply" opacity="0.5" d="M45 82.6131C45 82.6131 44.0054 84.083 42.6631 85.9647C42.6631 85.9647 40.6952 85.6572 37.3691 87.5962C36.7833 87.9843 36.2875 88.4877 35.9136 89.0739C35.5396 89.6602 35.2959 90.3163 35.198 91C34.7755 86.4026 35.1605 78 35.1605 78C35.1605 78 42.4225 79.4856 45 82.6131Z" fill="url(#paint3_linear_700_2239)"/>
<path d="M59.2394 73.8355C57.0451 73.2746 54.3162 71.2616 52.2166 68.326C47.6833 61.983 42.8771 48.7361 48.6468 46.0154C49.2037 45.7481 51.9493 48.9929 54.8787 53.3072C58.326 58.3921 62.0462 64.9763 62.8204 69.0966C63.5945 73.2169 61.7678 74.496 59.2394 73.8355Z" fill="url(#paint4_linear_700_2239)"/>
<path d="M56 72.5752C56 72.5752 57.8237 65.8787 60.0337 66.0017C62.2437 66.1247 62.5683 72.2751 61.1207 73.5101C59.6731 74.7451 56.8088 73.3477 56 72.5752Z" fill="url(#paint5_linear_700_2239)"/>
<path style="mix-blend-mode:multiply" opacity="0.3" d="M59 74C56.8454 73.4358 54.1658 71.4109 52.1042 68.4579C47.6529 62.0774 42.9336 48.7522 48.5989 46.0155C49.1458 45.7466 51.8418 49.0106 54.7182 53.3504C54.7182 53.3504 53.3948 62.9001 54.3463 66.296C55.2978 69.6919 58.4586 71.7695 58.4586 71.7695L59 74Z" fill="url(#paint6_linear_700_2239)"/>
<path d="M26.0162 68.0821C25.7164 76.8499 29.5711 81.6236 38.1316 83.6794C46.5262 85.6978 53.9839 77.9659 54 66.6617C54 59.4424 53.5503 52.9226 50.9484 48.2717C49.4764 45.5581 47.0657 43.4706 44.1653 42.398C41.6811 41.4422 39.2077 42.2752 36.9163 44.1762C30.947 49.1314 26.2518 61.3273 26.0162 68.0821Z" fill="url(#paint7_linear_700_2239)"/>
<path style="mix-blend-mode:multiply" opacity="0.3" d="M34 54C32.6739 57.392 31.525 60.8559 30.5582 64.3767C29.3218 69.4077 31.0629 75 31.0629 75L26.4603 73.4839C26.4603 73.4839 25.2188 66.5801 26.8136 62.7662C27.4938 61.2197 28.0804 59.6306 28.5698 58.008L34 54Z" fill="url(#paint8_linear_700_2239)"/>
<path d="M54 68.3266C54 68.3266 53.6593 61.7809 47.5861 60.2981C40.3069 58.5261 33.3468 65.0098 32.3896 70.3311C31.4324 75.6524 31.8001 80.9427 38.6196 82.8233C38.6196 82.8233 51.5664 85.6906 54 68.3266Z" fill="url(#paint9_linear_700_2239)"/>
<path d="M53 68.6898C53 68.6898 52.6747 61.8543 46.8764 60.3125C39.9318 58.4581 33.2868 65.2289 32.3729 70.7814C31.459 76.3339 31.8049 81.8379 38.3054 83.8163C38.3054 83.8163 50.6972 86.8028 53 68.6898Z" fill="url(#paint10_radial_700_2239)"/>
<path d="M28.6356 59.9973C28.8552 60.0103 29.0751 59.9764 29.2798 59.898C29.4845 59.8196 29.6691 59.6985 29.8204 59.5434C31.8748 57.96 34.989 52.6189 35.7988 49.4364C36.114 48.2066 36.0868 47.2936 35.5162 47.0402C34.5814 46.6338 31.7552 49.3414 29.6084 53.6006C28.3529 56.0811 27.266 59.6595 28.6356 59.9973Z" fill="url(#paint11_linear_700_2239)"/>
<path d="M30 59C32.0618 57.4334 35.1873 52.1488 36 49C34.7182 49.9608 32.9454 52.1332 31.4782 54.9791C30.816 56.2567 30.3196 57.607 30 59Z" fill="#6340A2"/>
<path style="mix-blend-mode:screen" opacity="0.72" d="M52.9035 68.5651C51.5574 70.1653 48.7364 66.8791 44.387 66.2791C40.0375 65.679 37.1951 67.4221 36.1332 66.4277C35.0713 65.4332 40.5095 59.7525 47.0685 61.2498C52.2921 62.4157 53.3647 68.0221 52.9035 68.5651Z" fill="url(#paint12_linear_700_2239)"/>
<path style="mix-blend-mode:screen" opacity="0.72" d="M44 82.3042C42.5442 82.9689 40.8662 83.1654 39.2607 82.859C36.5582 82.3426 36 81.0153 36 81.0153C37.0771 80.9417 38.1563 81.134 39.1138 81.5701C40.6253 82.2256 42.324 82.4808 44 82.3042Z" fill="url(#paint13_linear_700_2239)"/>
<path d="M39.6101 54.0127C40.2464 54.1442 40.0301 57.9382 39.4892 57.9918C38.9484 58.0454 37.9812 57.8749 38.0003 56.2921C38.0194 54.7092 39.0247 53.8861 39.6101 54.0127Z" fill="#DBD0F7"/>
<path d="M34.9649 101C32.1937 101.074 20.6552 75.9007 23.4264 73.9177C28.1411 70.537 34.5858 77.3036 36.9833 81.1484C37.416 81.7655 37.7358 82.4527 37.9283 83.1789C38.2113 85.3887 37.7414 100.931 34.9649 101Z" fill="url(#paint14_linear_700_2239)"/>
<path d="M34.6838 48.5822C36.2359 50.1764 31.7716 58.9745 27.894 60.4381C24.0164 61.9017 15.6425 60.1062 14.3038 59.5621C12.965 59.018 12.469 54.4313 13.7224 52.6793C14.9758 50.9273 32.5663 46.4004 34.6838 48.5822Z" fill="url(#paint15_linear_700_2239)"/>
<path style="mix-blend-mode:multiply" opacity="0.5" d="M28 48.5963C32.274 51.7068 37.4336 53.2461 42.6538 52.968C51.3656 52.4871 52 49.6018 52 49.6018C52 49.6018 49.1242 45.2301 46.793 44.476C45.8731 44.1809 36.2837 42.4159 33.1489 48.3012C31.0925 48.2958 28 48.5963 28 48.5963Z" fill="url(#paint16_linear_700_2239)"/>
<path d="M49.078 2C49.078 2 53.6971 5.07926 55.7421 12.1768C57.787 19.2744 47 10.7519 47 10.7519L49.078 2Z" fill="url(#paint17_linear_700_2239)"/>
<path d="M27.2395 5.76287C13.4975 14.1583 14.2443 35.139 19.5192 42.7516C25.6512 51.602 57.8472 46.0368 62.3963 31.5047C66.998 16.8034 44.3261 -4.67988 27.2395 5.76287Z" fill="url(#paint18_linear_700_2239)"/>
<path style="mix-blend-mode:multiply" opacity="0.5" d="M23 28C23 28 21.3276 35.193 17.0203 37C17.0203 37 16 33.4863 16 31.2778C16 29.0692 23 28 23 28Z" fill="url(#paint19_linear_700_2239)"/>
<path d="M35.448 7.49541C24.853 12.9218 23.2262 34.8859 30.2791 42.1822C37.332 49.4784 61.2404 41.7619 62.9039 28.7105C64.3995 17.0872 48.1264 0.996692 35.448 7.49541Z" fill="url(#paint20_linear_700_2239)"/>
<path style="mix-blend-mode:screen" opacity="0.5" d="M38 41.8997C38 41.8997 32.7335 42.7247 30.4143 39.6432C28.095 36.5618 29.1582 34.1797 29.8964 34.0048C30.6346 33.83 32.9924 38.4522 34.8544 40.0803C36.7164 41.7084 38 41.8997 38 41.8997Z" fill="url(#paint21_linear_700_2239)"/>
<path d="M25.9015 13.7947C25.9015 13.7947 27.335 27.2194 19.2649 31.9703C19.2649 31.9703 15.3042 32.4062 13 29.9381C13 29.9381 16.5837 33.3978 20.3692 29.7964C24.1547 26.1951 23.2415 16.2628 20.3692 13.0319C17.4969 9.80108 13.3504 10.6456 13.3504 10.6456L15.0069 9.11459C15.0069 9.11459 21.1179 7.83969 25.9015 13.7947Z" fill="url(#paint22_linear_700_2239)"/>
<path d="M14.6912 9.00804C14.6912 9.00804 19.2368 8.58304 22.4122 13.9119C25.7865 19.5895 23.3364 29.4081 19.2368 30.901C15.1372 32.394 11 16.5055 11 16.5055L13.3802 10.2013C13.6795 9.67109 14.1392 9.25269 14.6912 9.00804Z" fill="url(#paint23_linear_700_2239)"/>
<path d="M9.28187 22.2321C9.84117 25.2171 11.0162 27.6559 12.5915 29.1988L13.0328 29.6017C13.6368 30.1301 14.3405 30.5231 15.0992 30.7558C15.8579 30.9885 16.6552 31.0559 17.4404 30.9537C22.7204 30.2591 23.4336 22.3541 22.8128 17.874C22.0893 12.6994 17.8047 9.59255 14.3925 10.0432C10.3543 10.5999 8.18893 16.3895 9.28187 22.2321Z" fill="url(#paint24_linear_700_2239)"/>
<path style="mix-blend-mode:screen" opacity="0.72" d="M22 25C22 25 21.3975 29.7481 17.6831 30.7704C13.9687 31.7926 10.9507 29.2759 10 25.7161C10 25.7161 11.1663 28.7881 15.9972 27.9993C20.8282 27.2106 22 25 22 25Z" fill="url(#paint25_linear_700_2239)"/>
<path style="mix-blend-mode:screen" opacity="0.72" d="M20.9998 15.0892C20.9574 15.9216 14.4282 14.193 12.3524 14.4477C10.2766 14.7023 9.39225 17.0577 9.06393 16.9989C8.73562 16.9402 9.59348 11.4361 13.475 11.0297C17.3566 10.6233 21.0316 14.5113 20.9998 15.0892Z" fill="url(#paint26_linear_700_2239)"/>
<path d="M55.1482 24.6778C57.4037 26.001 60.6982 23.0452 59.8692 19.5224C59.0402 15.9995 55.1643 13.1239 53.2425 14.2467C51.3207 15.3694 51.3907 22.4667 55.1482 24.6778Z" fill="url(#paint27_linear_700_2239)"/>
<path d="M34.4634 31.2645C38.1075 33.6659 42.0437 29.7143 41.9996 26.2093C41.9555 22.7043 38.543 19.2571 35.1801 20.1399C31.4974 21.0963 30.698 28.7947 34.4634 31.2645Z" fill="url(#paint28_linear_700_2239)"/>
<path d="M45.0179 33.0343C44.6887 33.6641 48.9949 36.7337 51.0671 35.8372C53.4901 34.7875 53.1123 29.3973 52.686 29.0285C52.2597 28.6597 45.5845 31.9733 45.0179 33.0343Z" fill="#2F95CD"/>
<path style="mix-blend-mode:screen" opacity="0.5" d="M27.477 26.5197C29.3961 29.1825 34.8755 20.0442 40.7825 17.0017C47.5128 13.5037 57.3061 17.2132 57.9637 16.1286C58.6212 15.0439 50.2765 5.50428 39.4889 7.20178C28.7012 8.89928 25.7023 24.052 27.477 26.5197Z" fill="url(#paint29_linear_700_2239)"/>
<path d="M7 51.0467C7.17175 50.5594 7.44126 50.1219 7.78813 49.7673C8.13499 49.4127 8.55012 49.1503 9.00202 49L10 53L7 51.0467Z" fill="url(#paint30_linear_700_2239)"/>
<path d="M7 42.6316C7 42.6316 11.6437 39.7836 21.4108 40.0132C21.4108 40.0132 25.4822 54.909 26 65.6231C22.0916 66.6164 18.0674 67.0761 14.0364 66.9897C10.9544 59.1028 8.59907 50.9494 7 42.6316Z" fill="#E3E3E3"/>
<path d="M21 39.817L23.3029 39C23.3029 39 26.7629 53.7228 27 64.6829L25.7526 65L21 39.817Z" fill="#C6C6C6"/>
<path style="mix-blend-mode:multiply" opacity="0.5" d="M11 58.6316L12.148 62C12.148 62 15.3223 57.9018 14.9732 54L11 58.6316Z" fill="url(#paint31_linear_700_2239)"/>
<path d="M7 43C7 43 10.4869 39.7544 24 39L21.7274 39.9636C21.7274 39.9636 15.5835 39.8304 7 43Z" fill="#C6C6C6"/>
<path d="M8 53.1695C8 53.1695 8.28225 58.794 10.4896 60C10.4896 60 16.801 56.5928 15.9147 53.0775C15.305 50.6006 8 53.1695 8 53.1695Z" fill="url(#paint32_linear_700_2239)"/>
<path d="M7 51.0784C7 51.0784 7.00002 55.3556 9.47723 58C9.47723 58 12.7718 56.6928 13.8817 55.3656C15.6627 53.227 14.9261 52.005 14.3257 51.5091C13.3671 50.7278 7 51.0784 7 51.0784Z" fill="url(#paint33_linear_700_2239)"/>
<path d="M16.9308 46.7128C17.2179 47.8016 16.5851 48.8195 15.5186 48.9788C14.4521 49.1381 13.3563 48.3813 13.0692 47.2926C12.7821 46.2039 13.4149 45.1859 14.4814 45.0222C15.5479 44.8584 16.6437 45.6197 16.9308 46.7128Z" fill="#0B54AC"/>
<path style="mix-blend-mode:screen" opacity="0.5" d="M45 42C48.0242 41.23 50.7115 39.5569 52.6695 37.225C53.5007 36.1354 54.6119 35.2688 55.896 34.7088C57.18 34.1488 58.5934 33.9143 60 34.0279C60 34.0279 54.112 41.9949 45 42Z" fill="url(#paint34_linear_700_2239)"/>
<path style="mix-blend-mode:multiply" opacity="0.3" d="M34.9649 101C32.1937 101.073 20.6552 75.977 23.4264 74C23.4264 74 26.8703 89.7477 31.0725 93.8227C35.2746 97.8976 38.0138 87.2134 37.2449 82.5705C37.1701 82.1026 37.0847 81.6451 36.9833 81.2087C37.416 81.8239 37.7358 82.5091 37.9283 83.2331C38.2113 85.4362 37.7414 100.931 34.9649 101Z" fill="url(#paint35_linear_700_2239)"/>
<path d="M28.1006 79.0109C27.6576 79.5826 28.7848 83.0612 29.4016 82.9992C30.0185 82.9371 30.1475 81.0981 29.839 80.5087C29.5306 79.9194 28.2015 78.8824 28.1006 79.0109Z" fill="#DBD0F7"/>
<path d="M66.3989 70.6165C66.3989 70.6165 64.4995 68.2392 61.9092 68.0336C59.3189 67.8281 58.4393 68.5607 58.0292 70.3477C57.6191 72.1346 61.5854 78.3863 66.3504 82.9985C68.3147 83.0671 68.7895 80.695 69 79.1769C68.9352 77.8697 68.3362 73.6158 66.3989 70.6165Z" fill="url(#paint36_linear_700_2239)"/>
<path d="M59.7728 68.0907C59.7728 68.0907 64.8628 74.4008 66.5541 78.0817C67.4718 80.0694 68 81.3787 68 81.3787C68 81.3787 66.9329 84.5338 64.7294 82.0413C61.6402 78.5129 57.4733 73.1808 58.0548 70.4727C58.5457 68.2169 58.9245 67.7752 59.7728 68.0907Z" fill="url(#paint37_linear_700_2239)"/>
<path style="mix-blend-mode:multiply" opacity="0.5" d="M64 74.0378C64 74.0378 63.5557 77.4052 61.6688 78L61 70C61 70 63.3838 73.0347 64 74.0378Z" fill="url(#paint38_linear_700_2239)"/>
<path d="M61.8659 71.6328C62.1989 72.4794 61.8659 78.1193 61.369 78.7864C60.8721 79.4536 59.5553 78.4444 59.1628 77.3232C58.7702 76.2019 56.9416 70.0967 58.8646 68C58.8447 68 60.4746 68.1177 61.8659 71.6328Z" fill="url(#paint39_linear_700_2239)"/>
<path d="M61.4983 72.0007C61.7596 72.0403 62.143 74.2849 61.9455 74.7074C61.748 75.1299 61.3182 75.0969 61.0917 74.5952C60.8652 74.0934 61.0801 71.9545 61.4983 72.0007Z" fill="#DBD0F7"/>
<defs>
<linearGradient id="paint0_linear_700_2239" x1="45.4056" y1="12.92" x2="42.5925" y2="1.19215" gradientUnits="userSpaceOnUse">
<stop stop-color="#B9ACF4"/>
<stop offset="1" stop-color="#E1D1F5"/>
</linearGradient>
<radialGradient id="paint1_radial_700_2239" cx="0" cy="0" r="1" gradientUnits="userSpaceOnUse" gradientTransform="translate(35.5 119.069) scale(35.5087 7.90643)">
<stop stop-color="#BE9DEA"/>
<stop offset="0.39" stop-color="#E0BFF5"/>
<stop offset="1" stop-color="white"/>
</radialGradient>
<linearGradient id="paint2_linear_700_2239" x1="36.062" y1="93.9855" x2="40.2073" y2="79.3654" gradientUnits="userSpaceOnUse">
<stop stop-color="#CBC1F7"/>
<stop offset="1" stop-color="#D4BEF1"/>
</linearGradient>
<linearGradient id="paint3_linear_700_2239" x1="40.0001" y1="90.9896" x2="40.0001" y2="77.9896" gradientUnits="userSpaceOnUse">
<stop stop-color="#8DA4E5"/>
<stop offset="1" stop-color="#755CBB"/>
</linearGradient>
<linearGradient id="paint4_linear_700_2239" x1="52.8571" y1="73.1278" x2="55.9613" y2="46.8549" gradientUnits="userSpaceOnUse">
<stop stop-color="#CBC1F7"/>
<stop offset="1" stop-color="#D4BEF1"/>
</linearGradient>
<linearGradient id="paint5_linear_700_2239" x1="61.1774" y1="75.1545" x2="58.8972" y2="67.7632" gradientUnits="userSpaceOnUse">
<stop stop-color="#BE9DEA"/>
<stop offset="1" stop-color="#9E8CEF"/>
</linearGradient>
<linearGradient id="paint6_linear_700_2239" x1="52.487" y1="74" x2="52.487" y2="45.9944" gradientUnits="userSpaceOnUse">
<stop stop-color="#9D68C2"/>
<stop offset="1" stop-color="#CCEDFF"/>
</linearGradient>
<linearGradient id="paint7_linear_700_2239" x1="37.2855" y1="82.8547" x2="42.6111" y2="41.1544" gradientUnits="userSpaceOnUse">
<stop stop-color="#CBC1F7"/>
<stop offset="1" stop-color="#E8DCF7"/>
</linearGradient>
<linearGradient id="paint8_linear_700_2239" x1="26.9213" y1="73.1722" x2="32.38" y2="52.7976" gradientUnits="userSpaceOnUse">
<stop stop-color="#9D68C2"/>
<stop offset="1" stop-color="#CCEDFF"/>
</linearGradient>
<linearGradient id="paint9_linear_700_2239" x1="52.0697" y1="73.0749" x2="32.1288" y2="67.6951" gradientUnits="userSpaceOnUse">
<stop stop-color="#BE9DEA"/>
<stop offset="1" stop-color="#9E8CEF"/>
</linearGradient>
<radialGradient id="paint10_radial_700_2239" cx="0" cy="0" r="1" gradientUnits="userSpaceOnUse" gradientTransform="translate(39.1991 79.3372) rotate(-164.939) scale(14.989 15.5622)">
<stop stop-color="#45FFCD"/>
<stop offset="1" stop-color="#22E0FF"/>
</radialGradient>
<linearGradient id="paint11_linear_700_2239" x1="33.9077" y1="53.1984" x2="28.7344" y2="51.8254" gradientUnits="userSpaceOnUse">
<stop stop-color="#8879EA"/>
<stop offset="1" stop-color="#9E8CEF"/>
</linearGradient>
<linearGradient id="paint12_linear_700_2239" x1="52.6462" y1="66.1057" x2="36.0161" y2="62.0836" gradientUnits="userSpaceOnUse">
<stop/>
<stop offset="1" stop-color="#D4E2FF"/>
</linearGradient>
<linearGradient id="paint13_linear_700_2239" x1="38.9788" y1="82.2383" x2="39.3254" y2="80.6959" gradientUnits="userSpaceOnUse">
<stop stop-color="#D4E2FF"/>
<stop offset="1"/>
</linearGradient>
<linearGradient id="paint14_linear_700_2239" x1="26.931" y1="99.1472" x2="32.6047" y2="74.2668" gradientUnits="userSpaceOnUse">
<stop stop-color="#CBC1F7"/>
<stop offset="1" stop-color="#E8DCF7"/>
</linearGradient>
<linearGradient id="paint15_linear_700_2239" x1="22.9443" y1="61.1073" x2="24.7582" y2="46.9752" gradientUnits="userSpaceOnUse">
<stop stop-color="#CBC1F7"/>
<stop offset="1" stop-color="#E8DCF7"/>
</linearGradient>
<linearGradient id="paint16_linear_700_2239" x1="39.0062" y1="53.121" x2="41.6444" y2="43.119" gradientUnits="userSpaceOnUse">
<stop stop-color="#8DA4E5"/>
<stop offset="1" stop-color="#755CBB"/>
</linearGradient>
<linearGradient id="paint17_linear_700_2239" x1="50.0207" y1="16.5006" x2="46.9675" y2="2.76948" gradientUnits="userSpaceOnUse">
<stop stop-color="#45FFCD"/>
<stop offset="1" stop-color="#22E0FF"/>
</linearGradient>
<linearGradient id="paint18_linear_700_2239" x1="36.9477" y1="47.8777" x2="42.5501" y2="3.5333" gradientUnits="userSpaceOnUse">
<stop stop-color="#CBC1F7"/>
<stop offset="1" stop-color="#E8DCF7"/>
</linearGradient>
<linearGradient id="paint19_linear_700_2239" x1="19.4974" y1="37" x2="19.4974" y2="28" gradientUnits="userSpaceOnUse">
<stop stop-color="#8DA4E5"/>
<stop offset="1" stop-color="#755CBB"/>
</linearGradient>
<linearGradient id="paint20_linear_700_2239" x1="44.5003" y1="45.0004" x2="44.5003" y2="5.99736" gradientUnits="userSpaceOnUse">
<stop stop-color="#0665BD"/>
<stop offset="1" stop-color="#1A1F77"/>
</linearGradient>
<linearGradient id="paint21_linear_700_2239" x1="33.1412" y1="41.6866" x2="34.03" y2="34.5111" gradientUnits="userSpaceOnUse">
<stop/>
<stop offset="1" stop-color="#6A9BFF"/>
</linearGradient>
<linearGradient id="paint22_linear_700_2239" x1="19.4985" y1="31.9975" x2="19.4985" y2="9.00018" gradientUnits="userSpaceOnUse">
<stop stop-color="#B9ACF4"/>
<stop offset="1" stop-color="#E1D1F5"/>
</linearGradient>
<linearGradient id="paint23_linear_700_2239" x1="17.4959" y1="31.0209" x2="17.4959" y2="9.00259" gradientUnits="userSpaceOnUse">
<stop stop-color="#BE9DEA"/>
<stop offset="1" stop-color="#9E8CEF"/>
</linearGradient>
<linearGradient id="paint24_linear_700_2239" x1="16.0037" y1="31.012" x2="16.0037" y2="10.0114" gradientUnits="userSpaceOnUse">
<stop stop-color="#45FFCD"/>
<stop offset="1" stop-color="#22E0FF"/>
</linearGradient>
<linearGradient id="paint25_linear_700_2239" x1="15.9972" y1="31.0039" x2="15.9972" y2="25" gradientUnits="userSpaceOnUse">
<stop stop-color="#D4E2FF"/>
<stop offset="1"/>
</linearGradient>
<linearGradient id="paint26_linear_700_2239" x1="20.9998" y1="14.0021" x2="8.99509" y2="14.0021" gradientUnits="userSpaceOnUse">
<stop/>
<stop offset="1" stop-color="#D4E2FF"/>
</linearGradient>
<linearGradient id="paint27_linear_700_2239" x1="60.1289" y1="22.5172" x2="53.7412" y2="13.3492" gradientUnits="userSpaceOnUse">
<stop stop-color="#45FFCD"/>
<stop offset="1" stop-color="#22E0FF"/>
</linearGradient>
<linearGradient id="paint28_linear_700_2239" x1="38.7984" y1="29.9455" x2="33.757" y2="19.1913" gradientUnits="userSpaceOnUse">
<stop stop-color="#45FFCD"/>
<stop offset="1" stop-color="#22E0FF"/>
</linearGradient>
<linearGradient id="paint29_linear_700_2239" x1="27.0013" y1="16.9855" x2="58.0011" y2="16.9855" gradientUnits="userSpaceOnUse">
<stop/>
<stop offset="1" stop-color="#6A9BFF"/>
</linearGradient>
<linearGradient id="paint30_linear_700_2239" x1="8.60521" y1="53.1933" x2="8.14793" y2="49.1161" gradientUnits="userSpaceOnUse">
<stop stop-color="#BE9DEA"/>
<stop offset="1" stop-color="#9E8CEF"/>
</linearGradient>
<linearGradient id="paint31_linear_700_2239" x1="11" y1="58.0196" x2="14.9996" y2="58.0196" gradientUnits="userSpaceOnUse">
<stop stop-color="#8DA4E5"/>
<stop offset="1" stop-color="#755CBB"/>
</linearGradient>
<linearGradient id="paint32_linear_700_2239" x1="11.0939" y1="60.0844" x2="12.182" y2="51.7609" gradientUnits="userSpaceOnUse">
<stop stop-color="#BE9DEA"/>
<stop offset="1" stop-color="#9E8CEF"/>
</linearGradient>
<linearGradient id="paint33_linear_700_2239" x1="8.89848" y1="57.7971" x2="11.6493" y2="50.4708" gradientUnits="userSpaceOnUse">
<stop stop-color="#CBC1F7"/>
<stop offset="1" stop-color="#E8DCF7"/>
</linearGradient>
<linearGradient id="paint34_linear_700_2239" x1="51.8676" y1="42.8224" x2="53.0227" y2="33.1872" gradientUnits="userSpaceOnUse">
<stop/>
<stop offset="1" stop-color="#6A9BFF"/>
</linearGradient>
<linearGradient id="paint35_linear_700_2239" x1="31.6928" y1="101.147" x2="30.2241" y2="73.6071" gradientUnits="userSpaceOnUse">
<stop stop-color="#9D68C2"/>
<stop offset="1" stop-color="#CCEDFF"/>
</linearGradient>
<linearGradient id="paint36_linear_700_2239" x1="64.7854" y1="84.4012" x2="62.0903" y2="68.8016" gradientUnits="userSpaceOnUse">
<stop stop-color="#CBC1F7"/>
<stop offset="1" stop-color="#E8DCF7"/>
</linearGradient>
<linearGradient id="paint37_linear_700_2239" x1="62.3872" y1="83.9267" x2="63.1325" y2="69.3171" gradientUnits="userSpaceOnUse">
<stop stop-color="#BE9DEA"/>
<stop offset="1" stop-color="#9E8CEF"/>
</linearGradient>
<linearGradient id="paint38_linear_700_2239" x1="61.9643" y1="79.0974" x2="62.3926" y2="71.1504" gradientUnits="userSpaceOnUse">
<stop stop-color="#8DA4E5"/>
<stop offset="1" stop-color="#755CBB"/>
</linearGradient>
<linearGradient id="paint39_linear_700_2239" x1="60.7911" y1="80.177" x2="58.5986" y2="69.1816" gradientUnits="userSpaceOnUse">
<stop stop-color="#CBC1F7"/>
<stop offset="1" stop-color="#E8DCF7"/>
</linearGradient>
</defs>
</svg>
