<svg width="77" height="115" viewBox="0 0 77 115" fill="none" xmlns="http://www.w3.org/2000/svg">
<path d="M47.3818 87.9375C46.2128 87.0098 44.8466 86.3626 43.3883 86.0455C43.1555 85.9821 42.9122 85.9675 42.6735 86.0023C42.4512 86.0725 42.2502 86.1972 42.0887 86.3652C41.9272 86.5331 41.8104 86.7389 41.749 86.9637C41.5771 87.5109 41.5732 88.097 41.738 88.6464C41.9028 89.1957 42.2287 89.683 42.6735 90.0451C43.1256 90.3918 43.6546 90.6243 44.2157 90.723C44.7767 90.8217 45.3533 90.7837 45.8966 90.6121C46.5063 90.4586 47.0311 90.0712 47.3572 89.5336C47.5109 89.2604 47.5642 88.9421 47.508 88.6337C47.4517 88.3253 47.2893 88.0463 47.049 87.845C47.0033 87.8613 46.9625 87.8887 46.9301 87.9249C46.8978 87.9611 46.8751 88.0048 46.864 88.052C46.853 88.0992 46.854 88.1485 46.8669 88.1952C46.8799 88.242 46.9044 88.2847 46.9381 88.3196L47.3818 87.9375Z" fill="#DFD4F7"/>
<path d="M42.8577 88.6768C42.7823 88.3802 42.6323 88.1079 42.422 87.8857C42.2116 87.6634 41.9479 87.4987 41.6559 87.4072C41.4309 87.6109 41.2576 87.8653 41.1504 88.1493C41.0432 88.4333 41.0052 88.7388 41.0397 89.0404C41.0881 89.3402 41.2535 89.6085 41.4997 89.7865C41.7458 89.9644 42.0524 90.0374 42.3523 89.9895C42.4918 89.9458 42.6172 89.8659 42.7156 89.7579C42.8141 89.6499 42.8822 89.5178 42.9129 89.3749C42.9436 89.232 42.9358 89.0836 42.8904 88.9447C42.845 88.8058 42.7635 88.6814 42.6543 88.5843L42.8577 88.6768Z" fill="#DFD4F7"/>
<path d="M37.9829 86.2427C38.0342 86.1103 38.0537 85.9677 38.0398 85.8264C38.0259 85.6851 37.9789 85.549 37.9028 85.4292C37.786 85.4786 37.681 85.5521 37.5946 85.6449C37.5517 85.6914 37.5236 85.7496 37.5137 85.8121C37.5038 85.8747 37.5127 85.9387 37.5392 85.9962C37.6193 86.1502 37.8288 86.1626 38.0014 86.1564L37.9028 86.2612L37.9829 86.2427Z" fill="#DFD4F7"/>
<path d="M39.0611 86.5382C39.1445 86.5648 39.2177 86.6165 39.2706 86.6862C39.168 86.7187 39.0594 86.7279 38.9527 86.7129C38.8461 86.698 38.7441 86.6594 38.6544 86.5999C38.5434 86.5444 38.4202 86.452 38.4325 86.3287C38.4448 86.2055 38.5126 86.187 38.5496 86.1069C38.5866 86.0267 38.5866 85.7124 38.753 85.657C38.8002 85.6474 38.8493 85.6545 38.892 85.6769C38.9346 85.6994 38.9682 85.7359 38.9871 85.7802C39.0264 85.8692 39.0413 85.9671 39.0303 86.0637V86.68L39.0611 86.5382Z" fill="#DFD4F7"/>
<path opacity="0.5" d="M25.6389 81.5466C25.5588 81.3864 25.2814 81.485 25.2506 81.6637C25.2466 81.7519 25.2616 81.8399 25.2946 81.9217C25.3276 82.0036 25.3777 82.0774 25.4417 82.1382C25.5463 82.0762 25.6302 81.9845 25.6829 81.8749C25.7355 81.7652 25.7545 81.6424 25.7375 81.522L25.6389 81.5466Z" fill="#DFD4F7"/>
<path d="M22.7492 87.198C22.757 87.2388 22.7493 87.2809 22.7277 87.3162C22.706 87.3516 22.6719 87.3775 22.6321 87.3891C22.5905 87.3981 22.5473 87.3978 22.5058 87.3882C22.4642 87.3786 22.4253 87.36 22.3918 87.3336C22.3487 87.3099 22.3142 87.2733 22.2932 87.2288C22.2811 87.2035 22.2744 87.176 22.2735 87.1479C22.2726 87.1199 22.2776 87.092 22.288 87.0659C22.2984 87.0399 22.3141 87.0163 22.3341 86.9966C22.3541 86.9769 22.3779 86.9616 22.4041 86.9515C22.4581 86.9349 22.5165 86.9389 22.5677 86.9628C22.619 86.9867 22.6595 87.0288 22.6814 87.0809C22.6996 87.1353 22.6978 87.1943 22.6764 87.2474C22.6549 87.3005 22.6152 87.3442 22.5643 87.3706L22.7492 87.198Z" fill="#DFD4F7"/>
<path d="M35.635 87.4813C35.6776 87.4785 35.7187 87.4649 35.7546 87.4418C35.7905 87.4188 35.82 87.387 35.8403 87.3494C35.8606 87.3119 35.8711 87.2698 35.8708 87.2272C35.8704 87.1845 35.8593 87.1426 35.8383 87.1054C35.7444 87.1013 35.6516 87.1272 35.5733 87.1794C35.535 87.2045 35.5066 87.2423 35.4931 87.2862C35.4796 87.3301 35.4818 87.3773 35.4994 87.4197C35.5364 87.506 35.672 87.5368 35.7213 87.4567L35.635 87.4813Z" fill="#DFD4F7"/>
<path d="M39.6165 87.21C39.6862 87.1253 39.7353 87.0255 39.7599 86.9186C39.7845 86.8116 39.7839 86.7004 39.7582 86.5938L39.2591 86.7601C39.1789 86.7781 39.1046 86.8163 39.0434 86.8711C39.0201 86.9035 39.0039 86.9406 38.9959 86.9797C38.988 87.0189 38.9884 87.0593 38.9971 87.0982C39.0058 87.1372 39.0227 87.1739 39.0466 87.2059C39.0705 87.238 39.1009 87.2646 39.1358 87.284C39.2093 87.3167 39.2909 87.3266 39.37 87.3123C39.4492 87.298 39.5222 87.2602 39.5795 87.2039L39.6165 87.21Z" fill="#DFD4F7"/>
<path opacity="0.5" d="M25.1326 86.6742L24.96 86.7174C24.9497 86.7648 24.9556 86.8143 24.9769 86.8579C24.9981 86.9015 25.0334 86.9367 25.0771 86.9577C25.1229 86.9736 25.1731 86.9709 25.2169 86.9501C25.2607 86.9294 25.2946 86.8923 25.3113 86.8468C25.3161 86.8236 25.3155 86.7997 25.3095 86.7768C25.3035 86.7539 25.2924 86.7327 25.2769 86.7148C25.2614 86.6969 25.242 86.6828 25.2202 86.6737C25.1983 86.6645 25.1747 86.6605 25.1511 86.6619L25.1326 86.6742Z" fill="#DFD4F7"/>
<path d="M36.8805 87.1609C36.8435 87.2656 36.9791 87.3643 37.0962 87.3581C37.2088 87.3288 37.3199 87.2938 37.429 87.2533C37.4869 87.2413 37.5468 87.2422 37.6044 87.256C37.6619 87.2699 37.7157 87.2963 37.7618 87.3334C37.7906 87.3535 37.814 87.3802 37.8301 87.4114C37.8462 87.4425 37.8545 87.4771 37.8542 87.5122C37.8379 87.5559 37.8127 87.5957 37.7803 87.6293C37.6369 87.807 37.447 87.9414 37.2318 88.0175C37.1242 88.0549 37.0079 88.059 36.898 88.0293C36.7881 87.9996 36.6896 87.9375 36.6155 87.8511C36.5665 87.7884 36.5353 87.7136 36.5251 87.6347C36.515 87.5557 36.5262 87.4755 36.5577 87.4024C36.5892 87.3293 36.6398 87.266 36.7042 87.2192C36.7686 87.1723 36.8444 87.1437 36.9236 87.1362L36.8805 87.1609Z" fill="#DFD4F7"/>
<path d="M38.6247 84.6095C38.6604 84.5475 38.6713 84.4743 38.6553 84.4046C38.6393 84.3348 38.5976 84.2738 38.5384 84.2335C38.4756 84.1973 38.4044 84.1782 38.332 84.1782C38.2595 84.1782 38.1883 84.1973 38.1255 84.2335C38.07 84.2705 38.0146 84.326 38.0392 84.3876C38.0639 84.4492 38.0947 84.4492 38.1378 84.4677L38.6309 84.6649L38.6247 84.6095Z" fill="#DFD4F7"/>
<path d="M32.0601 82.9148C32.047 82.986 32.0179 83.0532 31.9748 83.1114C31.9318 83.1695 31.8761 83.2171 31.8118 83.2504C31.7476 83.2837 31.6766 83.3019 31.6043 83.3035C31.532 83.3052 31.4602 83.2903 31.3945 83.26C31.4313 83.0314 31.5317 82.8178 31.6842 82.6437C31.7224 82.5994 31.7697 82.5638 31.8228 82.5394C31.876 82.5151 31.9338 82.5024 31.9923 82.5024C32.0508 82.5024 32.1086 82.5151 32.1618 82.5394C32.215 82.5638 32.2623 82.5994 32.3005 82.6437L32.2388 83.0381L32.0601 82.9148Z" fill="#DFD4F7"/>
<path d="M53.1615 91.5918C53.1778 91.5952 53.1933 91.6021 53.2068 91.612C53.2203 91.6219 53.2315 91.6346 53.2397 91.6492C53.2478 91.6638 53.2528 91.68 53.2542 91.6966C53.2556 91.7133 53.2534 91.7301 53.2477 91.7458C53.2247 91.8078 53.1812 91.86 53.1245 91.8938C53.0803 91.9261 53.03 91.9491 52.9766 91.9615C52.923 91.9644 52.8699 91.9497 52.8254 91.9197C52.7809 91.8897 52.7474 91.8459 52.7301 91.7951C52.7171 91.7431 52.7176 91.6886 52.7316 91.6368C52.7457 91.585 52.7727 91.5377 52.8102 91.4993C52.8268 91.4796 52.8475 91.4638 52.871 91.4531C52.8944 91.4425 52.92 91.4372 52.9458 91.4377C52.9587 91.4369 52.9717 91.4386 52.984 91.4428C52.9963 91.447 53.0076 91.4536 53.0174 91.4622C53.0271 91.4708 53.035 91.4812 53.0407 91.4928C53.0464 91.5045 53.0498 91.5172 53.0505 91.5302L53.1615 91.5918Z" fill="#DFD4F7"/>
<path d="M34.7047 86.1502C34.7047 86.0886 34.6739 86.027 34.6616 85.9653C34.5653 85.9669 34.473 86.0043 34.4027 86.0701C34.3411 86.1441 34.3658 86.2858 34.4644 86.292C34.5 86.2891 34.5342 86.2763 34.563 86.255L34.865 86.0886L34.7047 86.1502Z" fill="#DFD4F7"/>
<path d="M31.4625 85.5957C31.3978 85.457 31.308 85.3316 31.1975 85.2259C31.1399 85.1759 31.0688 85.144 30.9932 85.1341C30.9176 85.1243 30.8407 85.1369 30.7722 85.1704C30.709 85.2139 30.6615 85.2766 30.6367 85.3491C30.6048 85.4562 30.6167 85.5715 30.6699 85.6698C30.7231 85.768 30.8131 85.8411 30.9201 85.873C31.0272 85.9049 31.1425 85.8929 31.2408 85.8397C31.339 85.7866 31.4121 85.6966 31.444 85.5895L31.4625 85.5957Z" fill="#DFD4F7"/>
<path d="M30.6675 84.1845L30.3964 84.0366C30.3412 84.0937 30.3009 84.1636 30.2793 84.24C30.3349 84.2907 30.4074 84.3187 30.4827 84.3187C30.5579 84.3187 30.6304 84.2907 30.686 84.24L30.6675 84.1845Z" fill="#DFD4F7"/>
<path d="M39.3256 79.5744C38.7439 79.4387 38.1387 79.4387 37.5569 79.5744C37.4628 79.5925 37.3729 79.6281 37.2919 79.6792C37.2236 79.7428 37.1717 79.8219 37.1406 79.9099C37.1095 79.9979 37.1001 80.0921 37.1132 80.1845C37.144 80.4102 37.2413 80.6216 37.3928 80.7918C37.5443 80.9619 37.743 81.0831 37.9636 81.1397C38.1865 81.1897 38.418 81.1855 38.6389 81.1276C38.8597 81.0697 39.0635 80.9598 39.2332 80.807C39.4236 80.653 39.549 80.433 39.5845 80.1907C39.593 80.0652 39.5578 79.9407 39.4847 79.8385C39.4116 79.7362 39.3053 79.6624 39.1839 79.6299C39.1704 79.6438 39.1606 79.6609 39.1553 79.6796C39.1501 79.6984 39.1496 79.7181 39.1538 79.737C39.1581 79.756 39.1671 79.7736 39.1798 79.7882C39.1926 79.8029 39.2088 79.8141 39.227 79.8209L39.3256 79.5744Z" fill="#DFD4F7"/>
<path d="M39.6343 91.8756C39.5949 91.7374 39.5245 91.61 39.4284 91.5032C39.3322 91.3964 39.213 91.3129 39.0797 91.2593C39.0169 91.3715 38.9771 91.4951 38.9626 91.6229C38.9562 91.6858 38.9686 91.7493 38.9982 91.8052C39.0278 91.8612 39.0733 91.9071 39.129 91.9372C39.2892 92.0111 39.4618 91.894 39.5974 91.7893V91.931L39.6343 91.8756Z" fill="#DFD4F7"/>
<path d="M37.5878 91.9308C37.5419 91.8647 37.4743 91.8168 37.3967 91.7952C37.3194 91.7876 37.2417 91.8048 37.1749 91.8445C36.9755 91.9311 36.7694 92.0012 36.5586 92.0541L37.5015 92.5101C37.5278 92.5207 37.5511 92.5377 37.5693 92.5594C37.6309 92.6272 37.5693 92.7443 37.5693 92.8368C37.5693 92.9292 37.7603 93.0401 37.9021 93.0463C38.9436 93.1141 37.8836 92.2513 37.5878 91.9308Z" fill="#DFD4F7"/>
<path d="M41.5204 91.672C41.5253 91.5649 41.5056 91.4582 41.4629 91.3599C41.4202 91.2616 41.3555 91.1744 41.2739 91.105L40.972 91.5302C40.9177 91.5934 40.8815 91.67 40.8672 91.7521C40.8676 91.7919 40.8766 91.8312 40.8935 91.8672C40.9104 91.9033 40.935 91.9353 40.9654 91.961C40.9958 91.9867 41.0314 92.0056 41.0697 92.0163C41.1081 92.0271 41.1483 92.0294 41.1877 92.0232C41.2665 92.0074 41.3385 91.9675 41.3937 91.909C41.4489 91.8505 41.4846 91.7763 41.4958 91.6966L41.5204 91.672Z" fill="#DFD4F7"/>
<path d="M51.5422 94.6674L51.3697 94.7105C51.3598 94.7586 51.3666 94.8087 51.389 94.8524C51.4114 94.8961 51.4481 94.9308 51.4929 94.9509C51.5152 94.9586 51.5387 94.9619 51.5623 94.9606C51.5858 94.9592 51.6088 94.9532 51.63 94.9429C51.6512 94.9325 51.6701 94.9182 51.6857 94.9005C51.7013 94.8828 51.7133 94.8623 51.7209 94.84C51.7257 94.8168 51.7251 94.7928 51.7191 94.7699C51.7131 94.747 51.702 94.7258 51.6865 94.708C51.671 94.6901 51.6516 94.676 51.6298 94.6668C51.6079 94.6577 51.5843 94.6536 51.5607 94.6551L51.5422 94.6674Z" fill="#DFD4F7"/>
<path d="M39.1674 90.187C39.1611 90.1145 39.1265 90.0473 39.0712 90.0001C39.0159 89.9528 38.9442 89.9292 38.8716 89.9343C38.8002 89.9428 38.7324 89.9702 38.675 90.0135C38.6176 90.0568 38.5727 90.1145 38.5449 90.1808C38.5449 90.2424 38.5449 90.3225 38.5449 90.3534C38.5653 90.3624 38.5873 90.367 38.6096 90.367C38.6319 90.367 38.6539 90.3624 38.6743 90.3534L39.1859 90.2178L39.1674 90.187Z" fill="#DFD4F7"/>
<path d="M40.7515 88.2519C40.6869 88.1132 40.597 87.9878 40.4865 87.8821C40.4302 87.8319 40.3602 87.7998 40.2855 87.7899C40.2107 87.78 40.1348 87.7928 40.0674 87.8266C40.004 87.8687 39.9547 87.9288 39.9257 87.9992C39.8922 88.1087 39.9023 88.227 39.954 88.3292C40.0057 88.4315 40.0949 88.5097 40.203 88.5477C40.3133 88.5762 40.4303 88.5607 40.5293 88.5043C40.6283 88.4479 40.7013 88.3551 40.733 88.2457L40.7515 88.2519Z" fill="#DFD4F7"/>
<path d="M35.0016 83.1859C34.8475 83.1859 34.7674 83.3647 34.7242 83.5187C34.6811 83.6728 34.6256 83.8392 34.4839 83.8823C34.4646 83.8916 34.4436 83.8964 34.4222 83.8964C34.4009 83.8964 34.3798 83.8916 34.3606 83.8823C34.2743 83.8145 34.3606 83.6851 34.3606 83.5804C34.3697 83.4943 34.3697 83.4076 34.3606 83.3215C34.3602 83.2186 34.3905 83.1179 34.4475 83.0323C34.5046 82.9467 34.5859 82.88 34.6811 82.8408C34.736 82.8467 34.788 82.8685 34.8307 82.9035C34.8734 82.9386 34.9049 82.9853 34.9214 83.038C34.9384 83.0913 34.9393 83.1483 34.9239 83.2021C34.9086 83.2558 34.8777 83.3038 34.8352 83.34L35.0016 83.1859Z" fill="#DFD4F7"/>
<path d="M31.4129 84.4618C31.2588 84.4618 31.1787 84.6467 31.1355 84.7946C31.0924 84.9425 31.0431 85.1151 30.8952 85.1582C30.876 85.1675 30.8549 85.1723 30.8336 85.1723C30.8122 85.1723 30.7912 85.1675 30.7719 85.1582C30.6918 85.0904 30.7719 84.961 30.7719 84.8562C30.7842 84.7704 30.7842 84.6832 30.7719 84.5974C30.7736 84.4942 30.8055 84.3937 30.8635 84.3083C30.9215 84.2229 31.0032 84.1563 31.0986 84.1167C31.1535 84.1226 31.2055 84.1444 31.2482 84.1794C31.2909 84.2144 31.3224 84.2612 31.3389 84.3139C31.3544 84.3678 31.3539 84.425 31.3375 84.4786C31.3211 84.5322 31.2894 84.5799 31.2465 84.6159L31.4129 84.4618Z" fill="#DFD4F7"/>
<path d="M28.9366 83.0747C28.8374 82.9984 28.7211 82.9476 28.5977 82.9268H28.536C28.518 82.9346 28.5019 82.9464 28.4891 82.9613C28.4763 82.9763 28.467 82.994 28.4621 83.013C28.449 83.0589 28.4503 83.1077 28.4657 83.1529C28.4811 83.198 28.51 83.2374 28.5484 83.2657C28.5868 83.2943 28.6318 83.3126 28.6792 83.3191C28.7266 83.3256 28.7749 83.3199 28.8195 83.3027C28.8455 83.2971 28.87 83.2859 28.8912 83.2699C28.9125 83.254 28.9301 83.2336 28.9428 83.2103C28.9533 83.1864 28.956 83.1598 28.9504 83.1344C28.9449 83.1089 28.9314 83.0858 28.912 83.0685V83.1116L28.9366 83.0747Z" fill="#DFD4F7"/>
<path d="M45.595 90.1558C45.5584 90.0172 45.4897 89.8892 45.3944 89.7821C45.2991 89.6751 45.1799 89.592 45.0465 89.5396C44.9829 89.6492 44.943 89.771 44.9294 89.897C44.923 89.96 44.9354 90.0234 44.965 90.0794C44.9946 90.1353 45.0401 90.1812 45.0958 90.2113C45.256 90.2853 45.4286 90.1682 45.5642 90.0634V90.2051L45.595 90.1558Z" fill="#DFD4F7"/>
<path d="M44.4599 92.5533C44.493 92.5264 44.5186 92.4913 44.5341 92.4515C44.5495 92.4117 44.5544 92.3686 44.5482 92.3263C44.542 92.2841 44.5249 92.2441 44.4986 92.2105C44.4723 92.1768 44.4378 92.1506 44.3983 92.1343C44.3199 92.1866 44.2596 92.262 44.2257 92.35C44.2126 92.394 44.214 92.4411 44.2295 92.4843C44.245 92.5275 44.2739 92.5647 44.312 92.5903C44.3319 92.6003 44.354 92.6054 44.3762 92.6053C44.3985 92.6051 44.4205 92.5997 44.4403 92.5895C44.4601 92.5793 44.4772 92.5646 44.4903 92.5465C44.5033 92.5285 44.5119 92.5076 44.5154 92.4856L44.4599 92.5533Z" fill="#DFD4F7"/>
<path d="M41.2295 89.1083C41.2625 89.0807 41.2878 89.045 41.3032 89.0048C41.3185 88.9646 41.3233 88.9212 41.3171 88.8786C41.311 88.836 41.294 88.7957 41.2679 88.7614C41.2418 88.7272 41.2073 88.7003 41.1679 88.6831C41.0896 88.7341 41.0309 88.8102 41.0015 88.8988C40.9862 88.9427 40.9865 88.9905 41.0022 89.0342C41.0179 89.0779 41.0481 89.115 41.0878 89.1392C41.1077 89.1491 41.1297 89.1542 41.152 89.1541C41.1743 89.154 41.1962 89.1486 41.216 89.1384C41.2358 89.1282 41.253 89.1134 41.266 89.0954C41.2791 89.0773 41.2877 89.0564 41.2911 89.0344L41.2295 89.1083Z" fill="#DFD4F7"/>
<path d="M45.28 91.5491C45.3108 91.66 45.4834 91.6538 45.5696 91.5799C45.6559 91.5059 45.6929 91.3827 45.7669 91.2964C45.8086 91.2536 45.8584 91.2196 45.9134 91.1964C45.9685 91.1731 46.0276 91.161 46.0873 91.1608C46.1226 91.1594 46.1576 91.1672 46.1889 91.1834C46.2203 91.1996 46.2468 91.2237 46.2661 91.2532C46.2787 91.2976 46.2787 91.3445 46.2661 91.3888C46.2552 91.6098 46.1826 91.8233 46.0565 92.0051C45.9906 92.1033 45.8962 92.1789 45.786 92.2219C45.6759 92.2649 45.5552 92.2731 45.4402 92.2455C45.3634 92.2233 45.294 92.181 45.2389 92.1231C45.1839 92.0651 45.1453 91.9935 45.1271 91.9157C45.1089 91.8379 45.1117 91.7566 45.1353 91.6803C45.159 91.6039 45.2025 91.5352 45.2615 91.4813L45.28 91.5491Z" fill="#DFD4F7"/>
<path d="M33.9229 84.3133C33.9537 84.4243 34.1263 84.4243 34.2126 84.3442C34.2852 84.2568 34.3511 84.1641 34.4098 84.0668C34.4496 84.0216 34.499 83.9859 34.5545 83.9624C34.61 83.939 34.6701 83.9283 34.7303 83.9313C34.765 83.9286 34.7999 83.9351 34.8313 83.9503C34.8627 83.9654 34.8895 83.9886 34.909 84.0175C34.921 84.0619 34.921 84.1087 34.909 84.1531C34.8988 84.3742 34.8261 84.5879 34.6994 84.7694C34.6335 84.8676 34.5391 84.9432 34.429 84.9862C34.3188 85.0291 34.1981 85.0374 34.0832 85.0098C34.0074 84.9864 33.9388 84.9441 33.8839 84.887C33.8289 84.8299 33.7893 84.7597 33.7689 84.6831C33.7514 84.6056 33.7547 84.5249 33.7785 84.4491C33.8023 84.3734 33.8458 84.3053 33.9044 84.2517L33.9229 84.3133Z" fill="#DFD4F7"/>
<path d="M34.5185 82.9453C34.5554 83.0501 34.7218 83.0501 34.8081 82.9453C34.8944 82.8406 34.9314 82.7543 35.0115 82.668C35.051 82.6224 35.1004 82.5865 35.156 82.563C35.2115 82.5394 35.2717 82.529 35.332 82.5324C35.3659 82.5295 35.3999 82.536 35.4304 82.5513C35.4608 82.5665 35.4865 82.5898 35.5045 82.6187C35.5166 82.6631 35.5166 82.7099 35.5045 82.7543C35.4873 82.974 35.4152 83.1859 35.295 83.3706C35.225 83.4639 35.1299 83.5355 35.0208 83.577C34.9117 83.6184 34.7931 83.6281 34.6787 83.6047C34.6024 83.5824 34.5332 83.5405 34.4781 83.4832C34.423 83.4259 34.3838 83.3552 34.3644 83.2781C34.3474 83.2011 34.3504 83.1211 34.373 83.0456C34.3957 82.9701 34.4373 82.9016 34.4938 82.8467L34.5185 82.9453Z" fill="#DFD4F7"/>
<path d="M36.3986 84.2827C36.4356 84.3937 36.602 84.3937 36.6883 84.2827C36.7746 84.1718 36.8115 84.0917 36.8917 84.0054C36.9311 83.9598 36.9806 83.9239 37.0361 83.9004C37.0917 83.8769 37.1519 83.8664 37.2121 83.8698C37.246 83.8669 37.2801 83.8734 37.3105 83.8887C37.341 83.9039 37.3667 83.9272 37.3847 83.9561C37.3967 84.0005 37.3967 84.0473 37.3847 84.0917C37.3693 84.3118 37.2971 84.5241 37.1752 84.708C37.1092 84.8061 37.0148 84.8818 36.9047 84.9247C36.7945 84.9677 36.6738 84.9759 36.5589 84.9483C36.4826 84.926 36.4134 84.8841 36.3583 84.8268C36.3031 84.7695 36.2639 84.6988 36.2446 84.6217C36.2263 84.5447 36.2287 84.4644 36.2514 84.3886C36.2741 84.3129 36.3164 84.2445 36.374 84.1903L36.3986 84.2827Z" fill="#DFD4F7"/>
<path d="M24.4861 95.2341C24.4861 95.345 24.6895 95.3389 24.7758 95.2341C24.862 95.1293 24.899 95.0431 24.9791 94.9568C25.0188 94.913 25.0674 94.8783 25.1216 94.8549C25.1758 94.8315 25.2344 94.82 25.2934 94.8212C25.3283 94.8178 25.3634 94.8241 25.3949 94.8393C25.4264 94.8545 25.4531 94.8781 25.4722 94.9075C25.4877 94.9535 25.4877 95.0032 25.4722 95.0492C25.4606 95.2691 25.3904 95.4819 25.2688 95.6655C25.1995 95.76 25.1048 95.8328 24.9956 95.8754C24.8865 95.9179 24.7675 95.9285 24.6525 95.9059C24.5762 95.8835 24.507 95.8417 24.4519 95.7844C24.3968 95.7271 24.3576 95.6563 24.3382 95.5792C24.3201 95.5013 24.3225 95.4201 24.3452 95.3434C24.3678 95.2667 24.41 95.1972 24.4676 95.1417L24.4861 95.2341Z" fill="#DFD4F7"/>
<path d="M42.9189 92.0417L42.7709 91.9246C42.6941 91.9841 42.6416 92.0695 42.623 92.1649C42.623 92.2574 42.7278 92.356 42.8079 92.3005C42.8881 92.245 42.8511 92.245 42.8696 92.2142C42.888 92.1834 42.9558 92.0047 43.0051 91.8999L42.9189 92.0417Z" fill="#DFD4F7"/>
<path d="M30.7906 91.1422C30.7275 91.0045 30.6374 90.8808 30.5255 90.7786C30.4688 90.7271 30.3976 90.6942 30.3216 90.6843C30.2456 90.6744 30.1684 90.688 30.1003 90.7232C30.0375 90.7644 29.9899 90.825 29.9647 90.8957C29.9312 91.0053 29.9414 91.1235 29.9931 91.2258C30.0447 91.328 30.134 91.4063 30.2421 91.4442C30.3523 91.4707 30.4685 91.4534 30.5662 91.3959C30.6639 91.3384 30.7355 91.2453 30.7659 91.1361L30.7906 91.1422Z" fill="#DFD4F7"/>
<path d="M42.9189 87.3701C42.966 87.393 43.0064 87.4278 43.036 87.471C43.0656 87.5142 43.0835 87.5644 43.0879 87.6167C43.0922 87.6689 43.0829 87.7214 43.0608 87.7689C43.0388 87.8164 43.0047 87.8574 42.962 87.8878C42.8428 87.8775 42.7273 87.8417 42.623 87.783C42.6542 87.6522 42.7334 87.5378 42.8449 87.4626L42.9189 87.3701Z" fill="#DFD4F7"/>
<path opacity="0.5" d="M29.6634 89.5705C29.6138 89.4991 29.5484 89.44 29.4723 89.3979C29.4368 89.3741 29.3949 89.3613 29.3521 89.3613C29.3093 89.3613 29.2675 89.3741 29.232 89.3979C29.1272 89.4965 29.1888 89.6752 29.1395 89.8108C29.0902 89.9464 28.9238 90.0327 28.9238 90.1744C28.9286 90.2089 28.9407 90.2419 28.9595 90.2712C28.9782 90.3005 29.0031 90.3254 29.0324 90.3441C29.0617 90.3629 29.0947 90.3751 29.1291 90.3798C29.1636 90.3846 29.1987 90.3818 29.232 90.3716C29.3672 90.3215 29.4806 90.2256 29.5524 90.1005C29.6356 90.0048 29.6891 89.8871 29.7065 89.7615C29.7154 89.6983 29.7018 89.634 29.6679 89.5799C29.6341 89.5258 29.5823 89.4854 29.5216 89.4657L29.6634 89.5705Z" fill="#DFD4F7"/>
<path d="M36.6518 86.0948C36.7674 85.8116 36.8093 85.5036 36.7738 85.1997C36.7382 84.8958 36.6263 84.6059 36.4484 84.3569C36.1445 84.3823 35.8511 84.48 35.5928 84.6419C35.3344 84.8038 35.1185 85.0251 34.9632 85.2875C34.8237 85.5567 34.7959 85.8701 34.8859 86.1596C34.9759 86.4492 35.1763 86.6916 35.4439 86.8344C36.0047 87.0624 36.7504 86.4523 36.5223 85.8853L36.6518 86.0948Z" fill="#DFD4F7"/>
<path d="M43.5487 86.1134C43.5301 86.1505 43.4982 86.1793 43.4595 86.1941C43.4207 86.2089 43.3778 86.2087 43.3392 86.1935C43.3015 86.175 43.2678 86.1491 43.2403 86.1173C43.2128 86.0856 43.1919 86.0486 43.1789 86.0086C43.1669 85.9601 43.1669 85.9093 43.1789 85.8607C43.1846 85.8329 43.196 85.8066 43.2124 85.7835C43.2288 85.7603 43.2498 85.7409 43.2742 85.7264C43.2986 85.7119 43.3257 85.7026 43.3539 85.6992C43.3821 85.6958 43.4106 85.6984 43.4378 85.7067C43.4903 85.725 43.5341 85.7624 43.5603 85.8115C43.5866 85.8606 43.5934 85.9178 43.5795 85.9717C43.5625 86.0265 43.5264 86.0734 43.4778 86.1039C43.4292 86.1344 43.3713 86.1465 43.3145 86.1381L43.5487 86.1134Z" fill="#DFD4F7"/>
<path d="M40.2024 86.1376C40.0606 86.1992 40.0422 86.3902 40.0483 86.5443C40.0545 86.6984 40.0483 86.8771 39.9435 86.9695C39.9257 86.9798 39.9056 86.9852 39.885 86.9852C39.8644 86.9852 39.8443 86.9798 39.8265 86.9695C39.7217 86.9387 39.7525 86.7908 39.7402 86.6799C39.7185 86.5965 39.6875 86.5159 39.6477 86.4395C39.6129 86.3426 39.6077 86.2374 39.633 86.1375C39.6582 86.0376 39.7127 85.9475 39.7895 85.8787C39.8434 85.8664 39.8997 85.8701 39.9515 85.8894C40.0033 85.9086 40.0483 85.9426 40.0811 85.9871C40.1138 86.0317 40.1328 86.0848 40.1358 86.14C40.1387 86.1952 40.1254 86.25 40.0976 86.2978L40.2024 86.1376Z" fill="#DFD4F7"/>
<path d="M35.6725 88.0053L35.5123 87.9375C35.4752 87.9695 35.4501 88.0132 35.4411 88.0613C35.4322 88.1095 35.4399 88.1593 35.463 88.2025C35.476 88.2227 35.493 88.24 35.5129 88.2535C35.5328 88.267 35.5552 88.2763 35.5788 88.2809C35.6024 88.2855 35.6267 88.2853 35.6502 88.2803C35.6737 88.2753 35.696 88.2656 35.7157 88.2518C35.7348 88.2374 35.7503 88.2188 35.761 88.1974C35.7717 88.1761 35.7773 88.1525 35.7773 88.1285C35.7773 88.1046 35.7717 88.081 35.761 88.0596C35.7503 88.0383 35.7348 88.0196 35.7157 88.0053H35.6725Z" fill="#DFD4F7"/>
<path d="M39.0488 87.8451C39.07 87.8688 39.0817 87.8995 39.0817 87.9314C39.0817 87.9632 39.07 87.9939 39.0488 88.0176C38.9928 88.0559 38.9252 88.0734 38.8577 88.0669C38.8044 88.0648 38.7521 88.0523 38.7036 88.03C38.658 88.002 38.6233 87.9592 38.6053 87.9087C38.5874 87.8583 38.5873 87.8032 38.605 87.7526C38.6238 87.703 38.6554 87.6592 38.6965 87.6257C38.7376 87.5922 38.7869 87.5701 38.8392 87.5616C38.8926 87.5527 38.9474 87.5637 38.9933 87.5924C39.0094 87.6113 39.0182 87.6354 39.0182 87.6602C39.0182 87.685 39.0094 87.7091 38.9933 87.728L39.0488 87.8451Z" fill="#DFD4F7"/>
<path d="M38.2 92.8675C38.4725 92.7303 38.7055 92.5259 38.877 92.2736C39.0484 92.0212 39.1527 91.7293 39.1799 91.4254C38.9369 91.2415 38.6522 91.1205 38.3511 91.0732C38.0501 91.0259 37.742 91.0537 37.4543 91.1543C37.3138 91.2088 37.1854 91.2904 37.0765 91.3946C36.9676 91.4988 36.8803 91.6235 36.8197 91.7614C36.759 91.8994 36.7261 92.0479 36.7229 92.1986C36.7197 92.3493 36.7463 92.4991 36.801 92.6395C36.874 92.7662 36.979 92.8715 37.1056 92.9447C37.2322 93.0179 37.3759 93.0564 37.5221 93.0564C37.6683 93.0564 37.8119 93.0179 37.9385 92.9447C38.0651 92.8715 38.1702 92.7662 38.2431 92.6395L38.2 92.8675Z" fill="#DFD4F7"/>
<path d="M42.6542 91.1421C42.574 90.9819 42.2967 91.0805 42.2659 91.253C42.2633 91.3419 42.279 91.4304 42.3118 91.5131C42.3447 91.5958 42.394 91.6708 42.4569 91.7337C42.5627 91.6725 42.6479 91.5812 42.7017 91.4715C42.7554 91.3618 42.7754 91.2385 42.7589 91.1174L42.6542 91.1421Z" fill="#DFD4F7"/>
<path d="M42.1371 84.7021L41.9708 84.6343C41.9337 84.6664 41.909 84.7105 41.9012 84.759C41.8933 84.8074 41.9026 84.857 41.9276 84.8993C41.9407 84.9195 41.9576 84.9368 41.9776 84.9503C41.9975 84.9637 42.0199 84.9731 42.0435 84.9777C42.0671 84.9823 42.0913 84.982 42.1148 84.9771C42.1383 84.9721 42.1606 84.9624 42.1803 84.9486C42.1994 84.9342 42.215 84.9156 42.2257 84.8942C42.2364 84.8728 42.2419 84.8492 42.2419 84.8253C42.2419 84.8014 42.2364 84.7778 42.2257 84.7564C42.215 84.735 42.1994 84.7164 42.1803 84.7021H42.1371Z" fill="#DFD4F7"/>
<path d="M40.4113 87.4442C39.9178 87.024 39.3334 86.7244 38.7042 86.569C38.6026 86.5479 38.4977 86.5479 38.3961 86.569C38.2998 86.5972 38.2119 86.6484 38.14 86.7182C38.068 86.788 38.0142 86.8743 37.9832 86.9696C37.9027 87.2033 37.8944 87.4558 37.9592 87.6942C38.024 87.9327 38.1591 88.1462 38.3468 88.307C38.5368 88.4645 38.7625 88.5732 39.0042 88.6237C39.2458 88.6742 39.4961 88.6649 39.7334 88.5966C39.8656 88.5681 39.9909 88.5137 40.102 88.4365C40.2131 88.3593 40.3077 88.2608 40.3805 88.1467C40.4507 88.0308 40.478 87.894 40.4578 87.76C40.4375 87.626 40.3709 87.5033 40.2696 87.4133C40.2492 87.4192 40.2307 87.4302 40.2158 87.4452C40.2009 87.4603 40.1901 87.479 40.1846 87.4994C40.179 87.5199 40.1788 87.5414 40.1839 87.5619C40.1891 87.5825 40.1995 87.6014 40.2141 87.6167L40.4113 87.4442Z" fill="#DFD4F7"/>
<path d="M33.1034 95.1727C33.0261 94.8714 32.8719 94.5954 32.6558 94.3718C32.4397 94.1481 32.1692 93.9845 31.8708 93.897C31.6457 94.1007 31.4724 94.355 31.3652 94.639C31.258 94.9231 31.2201 95.2285 31.2545 95.5301C31.303 95.8303 31.4682 96.0992 31.7141 96.2781C31.96 96.457 32.2666 96.5315 32.5672 96.4854C33.1835 96.3313 33.3868 95.3945 32.8692 95.0802L33.1034 95.1727Z" fill="#DFD4F7"/>
<path d="M29.3977 84.2828C29.3606 84.1444 29.2918 84.0166 29.1965 83.9096C29.1013 83.8026 28.9823 83.7193 28.8492 83.6665C28.7864 83.7787 28.7465 83.9023 28.7321 84.0301C28.7259 84.0923 28.7377 84.155 28.7661 84.2108C28.7945 84.2665 28.8383 84.3129 28.8923 84.3444C29.0525 84.4184 29.2313 84.3013 29.3668 84.1965V84.3383L29.3977 84.2828Z" fill="#DFD4F7"/>
<path d="M27.3531 84.3631C27.306 84.3009 27.2417 84.2537 27.1682 84.2275C27.0904 84.2237 27.0132 84.243 26.9464 84.283C26.747 84.3696 26.5409 84.4397 26.3301 84.4925L27.2668 84.9486C27.2949 84.9592 27.3202 84.976 27.3408 84.9979C27.4024 85.0657 27.3408 85.1828 27.3408 85.2752C27.3408 85.3676 27.5318 85.4786 27.6674 85.4847C28.7151 85.5217 27.6428 84.6589 27.3531 84.3631Z" fill="#DFD4F7"/>
<path d="M39.6649 85.7006L39.3937 85.5527C39.3456 85.6432 39.3268 85.7464 39.3401 85.848C39.3533 85.9497 39.3979 86.0446 39.4676 86.1197C39.6217 86.2491 39.9237 86.1752 39.9422 85.9718C39.9607 85.7684 39.9422 85.6452 40.0469 85.6575L39.6649 85.7006Z" fill="#DFD4F7"/>
<path d="M31.012 87.3151C31.0935 87.3453 31.1657 87.3963 31.2215 87.463C31.1189 87.496 31.0102 87.5054 30.9035 87.4905C30.7968 87.4755 30.6948 87.4366 30.6052 87.3767C30.5005 87.3213 30.3772 87.235 30.3895 87.1117C30.4019 86.9885 30.4696 86.9638 30.5066 86.8837C30.5436 86.8036 30.5436 86.4893 30.71 86.4338C30.7573 86.4243 30.8064 86.4313 30.849 86.4538C30.8917 86.4763 30.9253 86.5127 30.9442 86.5571C30.9807 86.6469 30.9954 86.744 30.9873 86.8406V87.4569L31.012 87.3151Z" fill="#DFD4F7"/>
<path d="M29.8715 90.458C29.7975 90.2978 29.5202 90.3964 29.4894 90.5689C29.4594 90.629 29.4477 90.6965 29.4555 90.7631C29.4633 90.8297 29.4904 90.8926 29.5334 90.9441C29.5764 90.9956 29.6335 91.0335 29.6976 91.053C29.7618 91.0726 29.8303 91.073 29.8947 91.0542C29.9591 91.0355 30.0167 90.9984 30.0603 90.9474C30.104 90.8965 30.1318 90.8339 30.1405 90.7674C30.1491 90.7008 30.1382 90.6332 30.109 90.5728C30.0799 90.5124 30.0337 90.4618 29.9762 90.4272L29.8715 90.458Z" fill="#DFD4F7"/>
<path opacity="0.5" d="M27.4876 87.5C27.4952 87.5415 27.4866 87.5844 27.4637 87.6198C27.4408 87.6553 27.4053 87.6807 27.3644 87.691C27.2821 87.7037 27.1981 87.6838 27.1302 87.6356C27.0866 87.6105 27.0504 87.5744 27.0254 87.5308C27.0143 87.5053 27.0083 87.4779 27.0078 87.4501C27.0074 87.4223 27.0125 87.3947 27.0228 87.3689C27.0331 87.3431 27.0485 87.3196 27.068 87.2998C27.0875 87.2799 27.1107 87.2642 27.1364 87.2535C27.1631 87.2437 27.1914 87.2392 27.2198 87.2404C27.2483 87.2416 27.2762 87.2484 27.3019 87.2605C27.3277 87.2725 27.3509 87.2895 27.37 87.3105C27.3892 87.3315 27.404 87.3561 27.4137 87.3829C27.4324 87.4365 27.4315 87.495 27.4112 87.548C27.3909 87.601 27.3525 87.6451 27.3028 87.6725L27.4876 87.5Z" fill="#DFD4F7"/>
<path d="M28.257 86.6803C28.2901 86.6533 28.3157 86.6182 28.3311 86.5784C28.3466 86.5386 28.3515 86.4955 28.3453 86.4533C28.339 86.411 28.322 86.3711 28.2957 86.3374C28.2694 86.3038 28.2348 86.2775 28.1954 86.2612C28.1188 86.3114 28.0604 86.3848 28.029 86.4708C28.0154 86.5157 28.0165 86.5638 28.032 86.6081C28.0475 86.6524 28.0766 86.6906 28.1152 86.7173C28.1356 86.7273 28.1581 86.7323 28.1808 86.7318C28.2035 86.7313 28.2257 86.7254 28.2457 86.7145C28.2656 86.7037 28.2826 86.6881 28.2953 86.6693C28.308 86.6505 28.316 86.6289 28.3186 86.6063L28.257 86.6803Z" fill="#DFD4F7"/>
<path d="M31.2841 84.0797C31.2897 83.9731 31.271 83.8667 31.2294 83.7684C31.1877 83.6702 31.1243 83.5827 31.0438 83.5127L30.7356 83.9379C30.6849 84.0034 30.6492 84.0791 30.6309 84.1598C30.6313 84.1996 30.6402 84.2389 30.6572 84.275C30.6741 84.311 30.6986 84.343 30.729 84.3687C30.7594 84.3944 30.795 84.4133 30.8334 84.4241C30.8718 84.4348 30.912 84.4372 30.9513 84.431C31.0306 84.416 31.1031 84.3764 31.1584 84.3177C31.2138 84.259 31.2492 84.1843 31.2595 84.1043L31.2841 84.0797Z" fill="#DFD4F7"/>
<path opacity="0.5" d="M27.7157 89.9835C27.7301 90.0438 27.7273 90.1069 27.7077 90.1657C27.6881 90.2245 27.6525 90.2767 27.6048 90.3163C27.5563 90.354 27.498 90.3769 27.4368 90.3824C27.3756 90.3878 27.3141 90.3756 27.2597 90.3471C27.1857 90.3101 27.1241 90.2054 27.1796 90.1437C27.2015 90.1163 27.2318 90.0968 27.2659 90.0883L27.7034 89.9219V90.002L27.7157 89.9835Z" fill="#DFD4F7"/>
<path opacity="0.5" d="M25.8922 91.5919C25.7381 91.5919 25.658 91.7768 25.6148 91.9247C25.5717 92.0726 25.5224 92.2451 25.3745 92.2944C25.3553 92.3037 25.3342 92.3086 25.3129 92.3086C25.2915 92.3086 25.2705 92.3037 25.2512 92.2944C25.165 92.2267 25.2512 92.0972 25.2512 91.9863C25.2603 91.9003 25.2603 91.8135 25.2512 91.7275C25.25 91.6243 25.2807 91.5233 25.3392 91.4383C25.3977 91.3534 25.4811 91.2886 25.5779 91.2529C25.6325 91.2596 25.6842 91.2816 25.7267 91.3166C25.7693 91.3515 25.801 91.3978 25.8182 91.4501C25.8332 91.5031 25.8324 91.5593 25.816 91.6118C25.7996 91.6643 25.7682 91.7109 25.7258 91.746L25.8922 91.5919Z" fill="#DFD4F7"/>
<path opacity="0.5" d="M36.0367 81.9721C35.8826 81.9721 35.8025 82.1508 35.7594 82.2987C35.7162 82.4466 35.6608 82.6253 35.519 82.6685C35.4998 82.6778 35.4787 82.6826 35.4574 82.6826C35.436 82.6826 35.415 82.6778 35.3958 82.6685C35.3095 82.6007 35.3958 82.4713 35.3958 82.3665C35.4049 82.2804 35.4049 82.1937 35.3958 82.1077C35.3945 82.0046 35.4244 81.9035 35.4816 81.8177C35.5388 81.7319 35.6206 81.6655 35.7162 81.627C35.7711 81.6328 35.8232 81.6546 35.8659 81.6897C35.9086 81.7247 35.9401 81.7715 35.9566 81.8242C35.9736 81.8774 35.9744 81.9345 35.9591 81.9882C35.9437 82.0419 35.9128 82.0899 35.8703 82.1261L36.0367 81.9721Z" fill="#DFD4F7"/>
<path opacity="0.5" d="M24.8939 90.4213L24.7644 90.3042C24.7192 90.3228 24.6813 90.3559 24.6568 90.3982C24.6323 90.4406 24.6225 90.4899 24.6289 90.5384C24.6346 90.5617 24.6449 90.5835 24.6593 90.6027C24.6736 90.6219 24.6917 90.638 24.7124 90.6501C24.7331 90.6622 24.756 90.67 24.7797 90.673C24.8035 90.6761 24.8276 90.6743 24.8507 90.6678C24.8726 90.6592 24.8922 90.6456 24.9081 90.6282C24.9239 90.6108 24.9356 90.59 24.9421 90.5674C24.9486 90.5447 24.9499 90.5209 24.9458 90.4977C24.9417 90.4746 24.9324 90.4526 24.9185 90.4336L24.8939 90.4213Z" fill="#DFD4F7"/>
<path d="M29.0667 85.6758C29.1037 85.7867 29.27 85.7806 29.3563 85.6758C29.4426 85.571 29.4796 85.4847 29.5597 85.3985C29.6 85.3539 29.6496 85.3187 29.705 85.2953C29.7603 85.2718 29.8201 85.2608 29.8802 85.2629C29.9141 85.26 29.9481 85.2665 29.9786 85.2817C30.009 85.2969 30.0347 85.3203 30.0527 85.3492C30.065 85.3956 30.065 85.4444 30.0527 85.4909C30.0355 85.7106 29.9634 85.9225 29.8432 86.1072C29.7739 86.2017 29.6792 86.2745 29.57 86.317C29.4609 86.3596 29.3418 86.3702 29.2269 86.3475C29.1506 86.3252 29.0814 86.2833 29.0263 86.226C28.9712 86.1687 28.932 86.098 28.9126 86.0209C28.8962 85.943 28.8995 85.8622 28.9221 85.7858C28.9447 85.7094 28.9859 85.6398 29.042 85.5833L29.0667 85.6758Z" fill="#DFD4F7"/>
<path d="M28.9358 82.5943C28.928 82.5224 28.893 82.4562 28.838 82.4092C28.783 82.3623 28.7122 82.3381 28.6399 82.3417C28.5684 82.3496 28.5003 82.3767 28.4428 82.4201C28.3853 82.4634 28.3406 82.5215 28.3133 82.5882C28.3133 82.6436 28.2763 82.7299 28.3133 82.7607C28.353 82.7759 28.3969 82.7759 28.4366 82.7607L28.9542 82.6251L28.9358 82.5943Z" fill="#DFD4F7"/>
<path d="M32.2883 89.8108C32.2761 89.8818 32.2477 89.949 32.2053 90.0072C32.1629 90.0654 32.1077 90.113 32.0439 90.1464C31.9801 90.1798 31.9095 90.198 31.8375 90.1997C31.7656 90.2013 31.6942 90.1864 31.6289 90.156C31.6594 89.9267 31.7582 89.712 31.9124 89.5397C31.9506 89.4954 31.9979 89.4598 32.051 89.4354C32.1042 89.4111 32.162 89.3984 32.2205 89.3984C32.279 89.3984 32.3368 89.4111 32.39 89.4354C32.4432 89.4598 32.4905 89.4954 32.5287 89.5397L32.4671 89.9341L32.2883 89.8108Z" fill="#DFD4F7"/>
<path opacity="0.5" d="M26.7174 86.1686L26.5756 86.0515C26.5001 86.1095 26.4476 86.1925 26.4277 86.2857C26.4277 86.3843 26.5325 86.4829 26.6065 86.4274C26.6355 86.4059 26.6571 86.3757 26.6681 86.3412L26.8037 86.0269L26.7174 86.1686Z" fill="#DFD4F7"/>
<path d="M42.8146 88.7877C42.7543 88.6483 42.6638 88.5241 42.5496 88.4241C42.4933 88.3739 42.4233 88.3418 42.3486 88.3319C42.2738 88.322 42.1979 88.3348 42.1305 88.3686C42.066 88.408 42.0179 88.4692 41.9949 88.5412C41.975 88.5949 41.9663 88.6521 41.9693 88.7093C41.9724 88.7665 41.9872 88.8225 42.0127 88.8737C42.0382 88.925 42.074 88.9705 42.1178 89.0074C42.1616 89.0443 42.2125 89.0718 42.2674 89.0883C42.3223 89.1048 42.3799 89.1098 42.4368 89.1031C42.4937 89.0964 42.5486 89.0781 42.5982 89.0494C42.6477 89.0206 42.6908 88.982 42.7249 88.9359C42.7589 88.8899 42.7831 88.8373 42.7961 88.7815L42.8146 88.7877Z" fill="#DFD4F7"/>
<path d="M34.9022 93.0895L34.6311 92.9478C34.5754 93.0032 34.5332 93.0706 34.5078 93.145C34.562 93.1984 34.6351 93.2284 34.7112 93.2284C34.7873 93.2284 34.8604 93.1984 34.9146 93.145L34.9022 93.0895Z" fill="#DFD4F7"/>
<path d="M50.0366 92.1713C50.0411 92.1911 50.0417 92.2117 50.0382 92.2317C50.0348 92.2518 50.0274 92.2709 50.0165 92.2881C50.0057 92.3053 49.9915 92.3202 49.9748 92.3319C49.9582 92.3435 49.9393 92.3518 49.9195 92.3562C49.8782 92.3648 49.8355 92.3649 49.7942 92.3565C49.7528 92.348 49.7137 92.3311 49.6791 92.3069C49.6387 92.2799 49.605 92.244 49.5805 92.2021C49.5684 92.1763 49.5616 92.1483 49.5607 92.1199C49.5597 92.0914 49.5646 92.063 49.575 92.0365C49.5853 92.0099 49.601 91.9858 49.6211 91.9655C49.6411 91.9453 49.665 91.9293 49.6915 91.9186C49.719 91.9081 49.7483 91.9031 49.7777 91.9039C49.8072 91.9047 49.8362 91.9113 49.8631 91.9233C49.89 91.9353 49.9142 91.9525 49.9345 91.9739C49.9547 91.9953 49.9706 92.0205 49.9811 92.048C49.9916 92.0755 49.9966 92.1049 49.9958 92.1343C49.995 92.1638 49.9884 92.1928 49.9764 92.2197C49.9644 92.2465 49.9472 92.2708 49.9258 92.2911C49.9044 92.3113 49.8792 92.3272 49.8517 92.3377L50.0366 92.1713Z" fill="#DFD4F7"/>
<path d="M33.8358 90.7721L33.5585 90.6304C33.5067 90.6876 33.4669 90.7547 33.4414 90.8276C33.4963 90.8796 33.5691 90.9086 33.6448 90.9086C33.7204 90.9086 33.7932 90.8796 33.8482 90.8276L33.8358 90.7721Z" fill="#DFD4F7"/>
<path d="M37.6065 83.2104C37.6065 83.0933 37.4401 83.0501 37.3354 83.0994C37.2409 83.1639 37.1504 83.2338 37.0642 83.309C37.0126 83.3396 36.9549 83.3583 36.8951 83.3636C36.8354 83.3689 36.7752 83.3608 36.7191 83.3398C36.6851 83.3327 36.6538 83.3163 36.6287 83.2923C36.6037 83.2684 36.5859 83.2378 36.5773 83.2042C36.5628 83.1602 36.5628 83.1126 36.5773 83.0686C36.6535 82.8533 36.7879 82.6635 36.9656 82.5201C37.0526 82.4536 37.1566 82.413 37.2657 82.4032C37.3748 82.3934 37.4844 82.4147 37.5819 82.4647C37.6488 82.5083 37.703 82.5689 37.7387 82.6404C37.7745 82.7119 37.7905 82.7917 37.7852 82.8714C37.7784 82.9503 37.7516 83.0262 37.7074 83.0919C37.6632 83.1577 37.603 83.2112 37.5326 83.2473L37.6065 83.2104Z" fill="#DFD4F7"/>
<path d="M39.9129 88.9049C39.9399 88.9871 39.984 89.0627 40.0423 89.1268C40.0707 89.1593 40.1082 89.1826 40.1499 89.1935C40.1917 89.2045 40.2358 89.2027 40.2765 89.1884C40.4121 89.1268 40.3997 88.9357 40.486 88.8186C40.5723 88.7015 40.7572 88.6707 40.8003 88.5351C40.8435 88.3996 40.7017 88.264 40.56 88.2578C40.4179 88.2655 40.2829 88.3221 40.1779 88.418C40.0682 88.4846 39.982 88.5837 39.9314 88.7015C39.9044 88.7589 39.899 88.824 39.9159 88.8851C39.9329 88.9461 39.9712 88.9991 40.0238 89.0343L39.9129 88.9049Z" fill="#DFD4F7"/>
<path d="M34.0584 85.7432C34.5461 85.9434 35.073 86.0298 35.5991 85.9958C35.6844 85.9966 35.7688 85.9776 35.8456 85.9404C35.9143 85.8958 35.9707 85.8346 36.0095 85.7624C36.0483 85.6902 36.0682 85.6094 36.0675 85.5275C36.072 85.3257 36.0156 85.1272 35.9057 84.9579C35.7957 84.7886 35.6374 84.6564 35.4512 84.5784C35.2642 84.502 35.0613 84.4727 34.8603 84.4931C34.6594 84.5135 34.4665 84.583 34.2987 84.6955C34.2034 84.7508 34.1199 84.8245 34.0533 84.9123C33.9866 85.0001 33.9381 85.1003 33.9105 85.207C33.8861 85.3141 33.899 85.4263 33.9472 85.525C33.9955 85.6236 34.076 85.7028 34.1755 85.7493C34.1895 85.7397 34.2009 85.7268 34.2088 85.7118C34.2167 85.6968 34.2208 85.68 34.2208 85.6631C34.2208 85.6461 34.2167 85.6294 34.2088 85.6143C34.2009 85.5993 34.1895 85.5864 34.1755 85.5768L34.0584 85.7432Z" fill="#DFD4F7"/>
<path d="M36.5523 82.8591C36.5768 82.7829 36.5768 82.701 36.5523 82.6249C36.5173 82.5558 36.4612 82.4996 36.3921 82.4647C36.2241 82.3388 36.0655 82.2008 35.9176 82.0518L35.9915 83.0933C35.9948 83.1219 35.9948 83.1509 35.9915 83.1796C35.9607 83.272 35.8313 83.272 35.7512 83.3336C35.671 83.3953 35.6772 83.5925 35.7512 83.7219C36.201 84.6278 36.4167 83.272 36.5523 82.8591Z" fill="#DFD4F7"/>
<path d="M34.0711 85.5957L33.9478 85.4663C33.9012 85.4804 33.861 85.5102 33.834 85.5507C33.807 85.5912 33.795 85.6398 33.7999 85.6882C33.8036 85.7118 33.812 85.7344 33.8247 85.7548C33.8373 85.7751 33.8539 85.7926 33.8734 85.8064C33.8929 85.8202 33.915 85.83 33.9384 85.8351C33.9618 85.8401 33.9859 85.8405 34.0095 85.8361C34.0324 85.8288 34.0533 85.8162 34.0705 85.7994C34.0877 85.7825 34.1007 85.7619 34.1085 85.7392C34.1162 85.7164 34.1186 85.6921 34.1153 85.6683C34.112 85.6444 34.1032 85.6217 34.0896 85.6019L34.0711 85.5957Z" fill="#DFD4F7"/>
<path d="M34.8897 82.8961C34.9199 82.8768 34.9458 82.8516 34.966 82.822C34.9862 82.7924 35.0001 82.759 35.007 82.7239C35.014 82.6888 35.0137 82.6526 35.0062 82.6176C34.9988 82.5826 34.9843 82.5494 34.9637 82.5201C34.9221 82.4611 34.8649 82.4149 34.7985 82.3866C34.7321 82.3583 34.6591 82.349 34.5877 82.3599C34.5261 82.3599 34.4522 82.3969 34.446 82.4585C34.4398 82.5201 34.4768 82.5386 34.5076 82.5694L34.8774 82.9515L34.8897 82.8961Z" fill="#DFD4F7"/>
<path d="M33.9271 84.5478C34.0314 84.4448 34.1094 84.3183 34.1545 84.1788C34.1995 84.0394 34.2103 83.8911 34.1859 83.7466C34.059 83.7467 33.9334 83.7719 33.8162 83.8205C33.7579 83.8462 33.7087 83.8886 33.6746 83.9424C33.6406 83.9962 33.6234 84.0589 33.6251 84.1225C33.6251 84.2951 33.8285 84.3875 33.9887 84.4553L33.8532 84.5108L33.9271 84.5478Z" fill="#DFD4F7"/>
<path d="M32.8246 85.1947C32.8491 85.2771 32.8491 85.3649 32.8246 85.4474C32.7394 85.3706 32.6737 85.2747 32.633 85.1675C32.5922 85.0604 32.5777 84.945 32.5904 84.8311C32.5904 84.7078 32.5904 84.5537 32.7137 84.5044C32.8369 84.4551 32.8801 84.5044 32.9664 84.5044C33.0526 84.5044 33.33 84.3442 33.4532 84.4551C33.4838 84.4925 33.5004 84.5394 33.5004 84.5876C33.5004 84.6359 33.4838 84.6827 33.4532 84.7201C33.3925 84.797 33.3143 84.8583 33.2252 84.8989L32.6767 85.2132L32.8246 85.1947Z" fill="#DFD4F7"/>
<path d="M35.7716 83.8205C35.866 83.7694 35.9481 83.6983 36.0119 83.612C36.0758 83.5257 36.12 83.4265 36.1414 83.3213L35.6175 83.272C35.5364 83.2537 35.4522 83.2537 35.371 83.272C35.3376 83.293 35.3089 83.3208 35.2868 83.3535C35.2647 83.3863 35.2497 83.4232 35.2427 83.4621C35.2358 83.501 35.237 83.5409 35.2464 83.5793C35.2557 83.6176 35.273 83.6536 35.2971 83.6849C35.3501 83.7457 35.4207 83.7884 35.4991 83.8072C35.5775 83.8259 35.6598 83.8198 35.7346 83.7897L35.7716 83.8205Z" fill="#DFD4F7"/>
<path d="M33.2816 82.687C33.2015 82.7732 33.2816 82.915 33.3987 82.952C33.5129 82.9708 33.6282 82.9831 33.7438 82.9889C33.802 83.0027 33.8568 83.0285 33.9045 83.0645C33.9523 83.1006 33.992 83.1462 34.0211 83.1985C34.0379 83.2287 34.0466 83.2626 34.0466 83.2971C34.0466 83.3316 34.0379 83.3655 34.0211 83.3957C33.9925 83.4323 33.954 83.4601 33.9102 83.4758C33.7069 83.5808 33.4793 83.6297 33.2508 83.6175C33.1378 83.604 33.0307 83.5593 32.9415 83.4886C32.8523 83.4179 32.7845 83.3239 32.7454 83.217C32.7263 83.1393 32.7283 83.058 32.7511 82.9814C32.7738 82.9048 32.8166 82.8356 32.875 82.781C32.9333 82.7264 33.0052 82.6883 33.0832 82.6707C33.1611 82.6531 33.2424 82.6566 33.3186 82.6808L33.2816 82.687Z" fill="#DFD4F7"/>
<path d="M36.9407 89.1947C37.0293 89.0731 37.0922 88.9347 37.1256 88.788C37.1419 88.7137 37.1353 88.6363 37.1067 88.5659C37.0781 88.4955 37.0288 88.4354 36.9654 88.3936C36.8975 88.3572 36.8195 88.3443 36.7435 88.3566C36.6328 88.3831 36.5362 88.4507 36.4733 88.5456C36.4104 88.6405 36.3858 88.7558 36.4046 88.8681C36.4363 88.9778 36.5091 89.071 36.6078 89.1284C36.7065 89.1858 36.8236 89.2029 36.9346 89.1762L36.9407 89.1947Z" fill="#DFD4F7"/>
<path d="M39.117 86.6064C39.2159 86.5038 39.2901 86.3799 39.3339 86.2443C39.3777 86.1087 39.3899 85.9648 39.3697 85.8237C39.243 85.8257 39.1177 85.8507 38.9999 85.8977C38.9415 85.9237 38.8919 85.9661 38.8569 86.0196C38.8219 86.0732 38.8031 86.1357 38.8027 86.1997C38.8027 86.3722 39.0061 86.4708 39.1663 86.5325L39.0369 86.5941L39.117 86.6064Z" fill="#DFD4F7"/>
<path d="M32.2891 85.2442C32.135 85.2442 32.0364 85.4106 31.9871 85.5523C31.9378 85.694 31.87 85.8666 31.7221 85.9036C31.7033 85.9144 31.6821 85.9201 31.6604 85.9201C31.6388 85.9201 31.6176 85.9144 31.5988 85.9036C31.5187 85.8358 31.5988 85.7064 31.6358 85.6016C31.6452 85.5176 31.6452 85.4329 31.6358 85.3489C31.6406 85.2454 31.6768 85.1457 31.7395 85.0632C31.8022 84.9806 31.8886 84.9191 31.9871 84.8867C32.0412 84.8983 32.0911 84.9246 32.1313 84.9626C32.1715 85.0006 32.2005 85.049 32.2151 85.1024C32.2272 85.1572 32.2232 85.2143 32.2035 85.2668C32.1838 85.3193 32.1493 85.3649 32.1042 85.3982L32.2891 85.2442Z" fill="#DFD4F7"/>
<path d="M41.4231 92.7812H41.2506C41.2211 92.8191 41.2051 92.8657 41.2051 92.9137C41.2051 92.9617 41.2211 93.0084 41.2506 93.0462C41.2673 93.0638 41.2873 93.0777 41.3096 93.0873C41.3318 93.0968 41.3558 93.1017 41.38 93.1017C41.4042 93.1017 41.4281 93.0968 41.4504 93.0873C41.4726 93.0777 41.4927 93.0638 41.5094 93.0462C41.5232 93.0268 41.5322 93.0045 41.5359 92.981C41.5396 92.9575 41.5378 92.9335 41.5306 92.9108C41.5235 92.8881 41.5111 92.8674 41.4946 92.8503C41.4781 92.8331 41.4579 92.8201 41.4355 92.8121L41.4231 92.7812Z" fill="#DFD4F7"/>
<path d="M36.1392 85.2133L36.1701 85.0346C36.0792 84.9976 35.9774 84.9976 35.8866 85.0346C35.8064 85.0777 35.7756 85.2195 35.8866 85.2626C35.9204 85.2749 35.9575 85.2749 35.9913 85.2626L36.3303 85.2256L36.1392 85.2133Z" fill="#DFD4F7"/>
<path d="M29.8726 98.1555C29.1392 102.432 25.8852 112.33 22.9702 111.276C22.3539 111.048 21.6822 110.253 21.0228 109.076C19.0322 105.514 17.0724 98.4944 16.0925 93.749C15.5625 91.1668 15.3222 89.2502 15.5379 88.942C16.8382 87.0131 29.1885 95.3637 29.9219 96.2881C30.0575 96.4669 30.0267 97.1571 29.8726 98.1555Z" fill="url(#paint0_linear_585_3897)"/>
<path d="M49.4085 92.3746C49.3654 92.7691 49.3099 93.182 49.2545 93.6072C48.3793 100.103 46.5736 109.631 44.6385 113.119C44.1763 113.951 43.7017 114.431 43.2334 114.444C43.1059 114.446 42.9789 114.427 42.8574 114.388C42.3185 114.178 41.8444 113.829 41.4831 113.378C38.5435 110.074 35.2217 100.047 35.1046 97.0522C35.0692 96.7921 35.1076 96.5273 35.2155 96.288C36.8918 94.014 49.0388 86.2488 49.7167 87.1732C49.8954 87.4444 49.7598 89.4904 49.4085 92.3746Z" fill="url(#paint1_linear_585_3897)"/>
<path d="M15.5315 88.9419C14.1634 90.7291 25.3058 98.8025 30.0019 96.7009C30.0019 96.6886 17.3434 86.5692 15.5315 88.9419Z" fill="url(#paint2_linear_585_3897)"/>
<path d="M35.1055 97.0521C34.7357 97.9581 47.5975 95.875 49.7175 87.1916C49.7175 87.1731 38.5936 88.4735 35.1055 97.0521Z" fill="url(#paint3_linear_585_3897)"/>
<path style="mix-blend-mode:multiply" opacity="0.3" d="M20.4006 96.4484C19.7843 97.2187 20.5485 107.227 22.952 111.276C22.3358 111.048 21.664 110.253 21.0046 109.076C20.6163 107.326 20.037 104.725 19.4885 102.13C18.7595 99.1889 17.614 96.3666 16.0866 93.749C15.5566 91.1668 15.3163 89.2502 15.532 88.942C16.8324 87.0131 29.1827 95.3637 29.916 96.2881C30.0578 96.4669 30.027 97.1571 29.8544 98.137C29.8729 98.1555 21.0292 95.6842 20.4006 96.4484Z" fill="url(#paint4_linear_585_3897)"/>
<path d="M42.1613 100.078C41.6375 100.238 41.5142 104.429 42.3894 104.663C43.2645 104.897 43.3754 99.7082 42.1613 100.078Z" fill="#DFD4F7"/>
<path style="mix-blend-mode:multiply" opacity="0.3" d="M49.409 92.3749C49.409 92.3749 42.3772 94.458 40.781 97.7921C39.1848 101.126 39.7641 109.052 41.5144 113.372C38.5747 110.068 35.253 100.041 35.1359 97.0464C35.1004 96.7863 35.1389 96.5214 35.2468 96.2822C36.9231 94.0081 49.07 86.2429 49.7479 87.1674C49.8958 87.4447 49.7602 89.4907 49.409 92.3749Z" fill="url(#paint5_linear_585_3897)"/>
<path d="M19.0067 59.5825C19.0067 63.2801 18.4705 68.6665 16.7819 73.0051C13.9963 80.1848 9.80559 89.2318 9.67617 89.5153C7.1186 91.0745 4.05567 90.9882 2.10206 90.7047C1.44134 90.6138 0.788315 90.4737 0.148438 90.2856C1.01586 84.1896 2.83335 78.2672 5.53475 72.7339C7.67153 68.4005 10.2401 64.2938 13.2013 60.4761V60.4329C13.2013 60.3898 13.2629 60.3528 13.2937 60.3097C13.3122 60.2886 13.3287 60.2659 13.343 60.2419C13.3628 60.2267 13.3796 60.2079 13.3923 60.1864C13.4134 60.1565 13.4361 60.1277 13.4601 60.1001C15.9931 56.8831 18.0514 54.9357 18.4828 55.1699C18.7787 55.2993 19.0128 57.0557 19.0067 59.5825Z" fill="url(#paint6_linear_585_3897)"/>
<path d="M0.179688 89.971C0.179688 89.971 3.4768 84.5293 6.87868 85.238C10.2806 85.9467 9.67044 89.552 9.67044 89.552C8.26832 90.4586 6.64998 90.9753 4.98191 91.049C3.31384 91.1226 1.65626 90.7505 0.179688 89.971Z" fill="url(#paint7_linear_585_3897)"/>
<path style="mix-blend-mode:multiply" opacity="0.3" d="M19.007 59.5825C19.007 63.2802 18.4708 68.6665 16.7822 73.0052C13.9966 80.1848 9.80589 89.2319 9.67647 89.5154L2.09619 90.7109C1.43547 90.62 0.782456 90.4799 0.142578 90.2919C1.01 84.1958 2.82749 78.2734 5.52888 72.7402C7.66567 68.4068 10.2342 64.3 13.1954 60.4823C11.7657 62.3681 5.80005 70.577 4.18539 77.5472C2.33654 85.4725 9.73193 82.4219 12.7517 77.5472C15.7715 72.6724 18.9145 59.5825 18.9145 59.5825H19.007Z" fill="url(#paint8_linear_585_3897)"/>
<path d="M10.7694 72.2594C10.1531 72.0314 13.2715 65.0057 14.2329 64.938C15.1943 64.8702 11.2748 72.4504 10.7694 72.2594Z" fill="#DFD4F7"/>
<path d="M10.4472 73.0047C9.97263 72.752 9.5289 74.0709 9.9603 74.2373C10.3917 74.4037 10.9833 73.2697 10.4472 73.0047Z" fill="#DFD4F7"/>
<path d="M5.78287 86.8777C4.02031 86.588 1.46889 88.2335 0.667727 89.7126C-0.13344 91.1917 -0.564837 99.7149 1.46273 106.753C1.46273 106.753 4.30379 107.523 6.42997 106.753C8.55614 105.982 10.0414 99.7703 10.1523 95.0989C10.2632 90.4275 8.6794 87.3461 5.78287 86.8777Z" fill="url(#paint9_linear_585_3897)"/>
<path d="M5.51758 106.986C5.51758 106.986 2.92303 91.9923 8.82085 88.9355C8.82085 88.9355 10.5711 91.906 9.924 97.6991C9.2769 103.492 8.30318 106.456 5.51758 106.986Z" fill="url(#paint10_linear_585_3897)"/>
<path style="mix-blend-mode:multiply" opacity="0.5" d="M5.0918 98.6669C5.0918 98.6669 6.60785 100.879 7.64321 101.243C8.23858 101.47 8.89668 101.47 9.49205 101.243L5.6711 94.4639C5.30683 95.8359 5.11227 97.2475 5.0918 98.6669Z" fill="url(#paint11_linear_585_3897)"/>
<path d="M5.66602 94.4206C5.66602 94.4206 6.50416 90.2669 9.01243 89.25C9.01243 89.25 11.342 91.5487 10.7503 100.479C10.7503 100.479 9.44999 102.198 7.61347 100.479C6.67998 98.562 6.02425 96.5222 5.66602 94.4206Z" fill="url(#paint12_linear_585_3897)"/>
<path d="M7.07028 92.9541C6.21981 92.9541 7.514 96.7257 7.95772 96.6518C8.40145 96.5778 7.80982 92.9541 7.07028 92.9541Z" fill="#DFD4F7"/>
<path d="M16.7824 6.78535C16.7824 6.78535 12.9307 3.46358 8.20995 2.88428C8.20995 2.88428 6.76785 3.593 5.12854 8.78826C3.48923 13.9835 6.53982 24.257 6.53982 24.257L16.7824 6.78535Z" fill="url(#paint13_linear_585_3897)"/>
<path d="M6.38672 5.47883C6.81564 4.49469 7.44536 3.61097 8.23557 2.88428C8.23557 2.88428 12.1181 6.46488 11.9641 15.025L10.8486 16.1837L6.38672 5.47883Z" fill="url(#paint14_linear_585_3897)"/>
<path d="M48.6816 6.78535C48.6816 6.78535 52.5396 3.46358 57.2541 2.88428C57.2541 2.88428 58.6962 3.593 60.3355 8.78826C61.9748 13.9835 58.9243 24.257 58.9243 24.257L48.6816 6.78535Z" fill="url(#paint15_linear_585_3897)"/>
<path d="M57.2544 2.88401C54.7728 5.89073 53.423 9.67184 53.4396 13.5703L54.9125 14.5009L59.2265 5.60182C59.2265 5.60182 57.7844 2.8039 57.2544 2.88401Z" fill="url(#paint16_linear_585_3897)"/>
<path d="M54.7705 14.0513C54.7705 14.0513 53.7598 8.41846 57.4637 4.2832C57.4637 4.2832 61.6482 6.25531 63.3862 13.5706C65.1241 20.8859 60.6067 25.2799 60.6067 25.2799L54.7705 14.0513Z" fill="url(#paint17_linear_585_3897)"/>
<path d="M10.6948 14.0513C10.6948 14.0513 11.7116 8.41846 8.00161 4.2832C8.00161 4.2832 3.81705 6.25531 2.0853 13.5706C0.353547 20.8859 4.86473 25.2799 4.86473 25.2799L10.6948 14.0513Z" fill="url(#paint18_linear_585_3897)"/>
<path d="M59.9162 45.1797C51.319 57.2465 10.8909 56.3467 5.62786 46.591C2.19517 40.2186 2.54645 30.6416 5.87437 21.8287C10.1883 10.2611 19.6113 0 32.0664 0C46.7277 0 57.9934 14.6059 61.3829 27.9422C63.1024 34.6967 62.8065 41.1245 59.9162 45.1797Z" fill="url(#paint19_linear_585_3897)"/>
<path d="M8.64785 33.9883C10.5706 42.2034 46.1055 43.097 54.8321 35.6523C63.5586 28.2076 50.9926 1.78141 31.7215 2.92153C14.1328 3.97537 5.49248 20.5349 8.64785 33.9883Z" fill="#DFE3FB"/>
<path d="M8.46225 32.9956C10.3851 41.2045 45.9199 42.0981 54.6465 34.6596C63.373 27.221 50.807 0.764031 31.5543 1.92264C13.9472 2.97648 5.30689 19.536 8.46225 32.9956Z" fill="url(#paint20_linear_585_3897)"/>
<path style="mix-blend-mode:multiply" opacity="0.3" d="M59.9162 45.1796C51.319 57.2464 10.8909 56.3466 5.62786 46.5908C2.19517 40.2185 2.54645 30.6415 5.87437 21.8286C5.73263 22.3463 2.34307 34.7028 5.80658 40.1384C9.34404 45.6849 23.3336 44.9269 38.3525 44.2859C53.3713 43.645 58.3385 41.4572 60.8591 37.2233C62.8435 33.8893 60.8591 26.5308 59.9039 23.5542L61.3768 27.9483C63.1024 34.6966 62.8065 41.1244 59.9162 45.1796Z" fill="url(#paint21_linear_585_3897)"/>
<path d="M32.1105 54.0602C23.7106 54.0602 17.6525 53.105 14.2691 51.743C12.0444 50.8556 10.9659 49.7955 11.1199 48.7047C11.2185 48.0391 12.8702 47.4722 15.4339 46.973C23.0635 45.5925 38.8526 45.1796 47.3697 46.4676C48.103 46.5785 48.7809 46.7018 49.3972 46.8374L49.7793 46.9298H49.8471C51.32 47.2934 52.3616 47.7372 52.8238 48.2733C52.9327 48.3934 53.0128 48.5367 53.0579 48.6924C53.9084 51.4287 39.7339 54.0602 32.1105 54.0602Z" fill="url(#paint22_linear_585_3897)"/>
<path style="mix-blend-mode:multiply" opacity="0.5" d="M52.9902 48.0331C52.9535 48.1229 52.9059 48.2077 52.8484 48.2858C52.0226 49.4505 48.6885 50.9481 48.6885 50.9481C48.6885 50.9481 35.8575 45.6974 25.4608 48.0331C15.0641 50.3688 14.2691 51.7308 14.2691 51.7308C12.0444 50.8433 10.9659 49.7833 11.1199 48.6925C11.2185 48.0269 12.8702 47.4599 15.4339 46.9608C23.0635 45.5803 38.8526 45.1674 47.3697 46.4554C48.2571 46.6156 49.0706 46.7697 49.7793 46.9176H49.8471C51.8932 47.386 53.0826 47.7681 52.9902 48.0331Z" fill="url(#paint23_linear_585_3897)"/>
<path d="M49.4204 46.8375C47.4359 48.7357 37.9082 50.3812 32.4787 50.375C22.7415 50.375 16.8313 48.822 15.457 46.9731C23.746 45.4756 41.6675 45.1119 49.4204 46.8375Z" fill="url(#paint24_linear_585_3897)"/>
<path d="M48.8127 84.899C47.6418 91.8321 41.4173 96.4481 32.5428 96.4481C24.7962 96.4481 18.2389 93.5639 16.5195 87.2039C14.8001 80.8438 15.4595 69.1036 17.7521 61.7884C18.0854 60.7119 18.4973 59.6614 18.9846 58.6453C19.4125 57.7545 19.9005 56.8938 20.4452 56.0693C23.2678 51.8169 27.4031 49.0375 32.0806 49.0375C34.187 48.9857 36.2784 49.4041 38.2026 50.2623C40.1269 51.1205 41.8356 52.3969 43.2045 53.9986C44.3774 55.3828 45.3106 56.9534 45.9655 58.6453C46.7458 60.6398 47.3842 62.6868 47.876 64.7712C47.8747 64.7917 47.8747 64.8123 47.876 64.8328C49.4965 71.396 49.8148 78.2133 48.8127 84.899Z" fill="url(#paint25_linear_585_3897)"/>
<path d="M42.7344 53.4316C42.7344 53.4316 43.4924 61.6652 48.3302 66.6694C48.361 66.6694 46.9867 58.9967 42.7344 53.4316Z" fill="url(#paint26_linear_585_3897)"/>
<path d="M70.0609 43.3804C62.4868 58.3992 49.1073 63.5267 49.1073 63.5267C45.4096 61.1479 42.2357 53.3889 43.4991 51.8728C43.5621 51.7983 43.6397 51.7375 43.7271 51.6941C60.0278 43.8981 64.9026 35.8125 64.9026 35.8125C65.8016 35.8602 66.6694 36.1585 67.4078 36.6736C68.1462 37.1888 68.7258 37.9002 69.081 38.7275C69.7378 40.1902 70.0721 41.7771 70.0609 43.3804Z" fill="url(#paint27_linear_585_3897)"/>
<path style="mix-blend-mode:multiply" opacity="0.5" d="M5.62748 46.591C7.07124 45.0821 8.78816 43.8608 10.6872 42.9919C14.0336 41.3896 17.115 40.1324 17.5895 38.8444C18.0641 37.5563 8.40075 38.3144 8.40075 38.3144L3.59375 40.4036C3.59375 40.4036 4.34562 44.3046 5.62748 46.591Z" fill="url(#paint28_linear_585_3897)"/>
<path d="M64.9273 35.806C63.5653 36.1697 63.6947 45.1735 65.4388 46.0733C67.1829 46.9731 70.0609 43.3802 70.0609 43.3802C70.0609 43.3802 69.7405 34.5242 64.9273 35.806Z" fill="url(#paint29_linear_585_3897)"/>
<path d="M39.1904 19.6967C40.4723 21.9585 48.977 19.9494 49.4577 18.6059C50.074 16.8125 47.7259 11.1612 43.2332 11.6789C38.7405 12.1965 38.568 18.5997 39.1904 19.6967Z" fill="url(#paint30_linear_585_3897)"/>
<path d="M25.9035 19.6967C24.6154 21.9585 16.1107 19.9494 15.63 18.6059C15.0138 16.8125 17.368 11.1612 21.8607 11.6789C26.3534 12.1965 26.5259 18.5997 25.9035 19.6967Z" fill="url(#paint31_linear_585_3897)"/>
<path d="M23.5312 23.8689C23.5312 23.8689 25.9594 26.371 32.831 26.371C39.7025 26.371 43.2338 23.4868 43.2338 23.4868C43.2338 23.4868 40.2017 27.5913 32.831 27.5913C25.4602 27.5913 23.5312 23.8689 23.5312 23.8689Z" fill="#2F95CD"/>
<path style="mix-blend-mode:screen" opacity="0.5" d="M14.2929 12.2209C13.8492 14.8832 19.7655 14.7661 27.8511 14.5011C37.5391 14.1806 47.2764 22.5128 52.94 16.5348C53.8767 15.5488 44.6017 2.59453 33.3977 2.88418C22.1937 3.17383 14.675 9.9098 14.2929 12.2209Z" fill="url(#paint32_linear_585_3897)"/>
<path style="mix-blend-mode:screen" opacity="0.5" d="M19.7851 35.3992C19.2736 37.322 23.3102 39.251 33.2324 38.7703C45.2252 38.154 47.7705 35.6889 47.1789 34.974C46.8276 34.5549 43.2346 36.8229 33.3803 34.6597C26.8785 33.2114 20.3274 33.3655 19.7851 35.3992Z" fill="url(#paint33_linear_585_3897)"/>
<path style="mix-blend-mode:multiply" opacity="0.3" d="M59.8307 23.2955L59.541 22.4204C59.5965 22.5868 59.7074 22.8888 59.8307 23.2955Z" fill="url(#paint34_linear_585_3897)"/>
<path style="mix-blend-mode:multiply" opacity="0.3" d="M48.8127 84.8991C47.6418 91.8323 41.4173 96.4483 32.5428 96.4483C24.7962 96.4483 18.2389 93.5641 16.5195 87.204C14.8001 80.844 15.4595 69.1038 17.7521 61.7885C18.0854 60.7121 18.4973 59.6616 18.9846 58.6455C18.9846 58.6455 14.3009 74.1758 18.0417 84.0672C21.7826 93.9585 39.2357 93.749 45.1581 87.1794C50.7786 80.9241 48.1841 66.2258 47.9191 64.8268C49.5261 71.3949 49.8297 78.2143 48.8127 84.8991Z" fill="url(#paint35_linear_585_3897)"/>
<path d="M16.8389 80.7885C18.1639 71.4888 25.6209 65.1843 33.9099 65.9978C42.8398 66.8421 47.6407 75.3653 47.5113 82.6805C47.3818 89.9958 42.0387 95.7087 32.4555 95.7087C22.8723 95.7087 15.6002 89.4843 16.8389 80.7885Z" fill="url(#paint36_linear_585_3897)"/>
<path d="M16.9297 81.559C18.2485 72.2593 25.7117 65.9548 33.9946 66.7683C42.9306 67.6126 47.7315 76.1358 47.6021 83.451C47.4726 90.7663 42.1295 96.4792 32.5401 96.4792C22.9508 96.4792 15.6971 90.2548 16.9297 81.559Z" fill="url(#paint37_radial_585_3897)"/>
<path style="mix-blend-mode:multiply" opacity="0.5" d="M43.233 53.9863C41.341 56.9568 30.9074 58.6886 24.8801 58.1401C19.6294 57.6594 20.4244 56.2419 20.4675 56.0632C23.2901 51.8109 27.4254 49.0314 32.1029 49.0314C34.2098 48.9779 36.3021 49.3949 38.2275 50.2521C40.1529 51.1092 41.8629 52.3849 43.233 53.9863Z" fill="url(#paint38_linear_585_3897)"/>
<path d="M39.5241 59.1386C39.0434 59.2989 39.0188 63.2061 39.5241 63.8409C40.0295 64.4756 40.8491 64.2723 41.1203 63.354C41.3915 62.4357 40.2575 58.8983 39.5241 59.1386Z" fill="#DFD4F7"/>
<path d="M40.4225 64.8822C40.0157 64.9746 39.9726 65.9483 40.1575 66.2873C40.2255 66.3605 40.3103 66.416 40.4046 66.4491C40.4988 66.4823 40.5997 66.492 40.6986 66.4774C40.7975 66.4629 40.8913 66.4245 40.972 66.3656C41.0528 66.3067 41.1179 66.2291 41.162 66.1394C41.2729 65.7265 40.8292 64.7836 40.4225 64.8822Z" fill="#DFD4F7"/>
<path style="mix-blend-mode:screen" opacity="0.72" d="M22.1699 91.0309C22.1699 91.0309 24.3084 94.7594 32.2831 94.7902C40.2578 94.821 43.4933 90.0695 43.4933 90.0695C42.1421 90.8145 40.6561 91.2833 39.1219 91.4483C37.5877 91.6134 36.036 91.4715 34.5572 91.0309C29.3003 89.5888 24.0989 88.7814 22.1699 91.0309Z" fill="url(#paint39_linear_585_3897)"/>
<path d="M38.9257 1.69457C38.0752 1.89794 45.2241 5.67575 45.5138 5.22586C45.8034 4.77598 41.2861 1.16457 38.9257 1.69457Z" fill="#DFD4F7"/>
<path d="M52.6203 4.52339C51.9055 4.90549 51.9671 5.67584 53.44 5.48479C54.9129 5.29375 55.7141 4.13513 55.5538 3.91327C55.3936 3.69141 53.4215 4.09199 52.6203 4.52339Z" fill="#DFD4F7"/>
<path style="mix-blend-mode:multiply" opacity="0.3" d="M70.0609 43.3805C62.4868 58.3993 49.1073 63.5267 49.1073 63.5267C45.4096 61.1479 42.2357 53.3889 43.4991 51.8728C43.573 51.8112 43.647 51.7496 43.7271 51.6941C43.8072 51.6387 46.1121 60.4515 53.1008 58.0233C61.3836 55.1391 64.7793 40.7674 64.7793 40.7674V36.5459L69.0933 38.7583C69.7416 40.2125 70.0715 41.7884 70.0609 43.3805Z" fill="url(#paint40_linear_585_3897)"/>
<path d="M64.4396 38.3453C64.4396 38.3453 64.3779 43.0969 67.0711 43.8919C69.7643 44.6869 73.1353 39.6272 74.3864 37.538C75.6374 35.4488 77.5294 26.0505 75.736 23.8072C73.9426 21.564 70.473 22.1371 68.1619 25.2801C68.1619 25.2555 64.569 34.3025 64.4396 38.3453Z" fill="url(#paint41_linear_585_3897)"/>
<path d="M64.5879 36.94C64.5879 36.94 67.7124 34.5611 68.4212 30.9066C69.1299 27.252 72.9139 22.4265 72.9139 22.4265C72.9139 22.4265 70.9233 22.2416 68.1623 25.2553C65.4014 28.2689 64.5879 36.94 64.5879 36.94Z" fill="url(#paint42_linear_585_3897)"/>
<path style="mix-blend-mode:multiply" opacity="0.5" d="M67.67 25.8838L70.0612 26.7836C69.4237 27.8789 68.9228 29.0483 68.5698 30.2656C68.0772 31.6963 67.3864 33.051 66.5176 34.2899L67.67 25.8838Z" fill="url(#paint43_linear_585_3897)"/>
<path d="M64.5875 36.0401C63.9635 34.3558 63.6462 32.5733 63.6508 30.7771C63.5399 27.3074 64.3657 24.6142 64.7478 24.1027C65.1299 23.5912 66.4795 23.6836 67.1205 24.454C67.7614 25.2243 68.2236 29.033 68.2236 29.033C68.2236 29.033 67.3608 35.202 64.5875 36.0401Z" fill="url(#paint44_linear_585_3897)"/>
<path d="M68.4219 30.9067C68.4219 30.9067 70.0242 36.1944 73.8883 38.3021L74.3875 37.5009C71.6699 35.8289 69.6144 33.2683 68.5698 30.2534L68.4219 30.9067Z" fill="url(#paint45_linear_585_3897)"/>
<path d="M65.6187 26.6913C65.2304 26.6482 65.3599 30.0624 65.8406 29.9145C66.3213 29.7666 66.1425 26.7591 65.6187 26.6913Z" fill="#DFD4F7"/>
<path style="mix-blend-mode:screen" opacity="0.2" d="M8.9195 30.2839C8.67191 28.1076 8.69882 25.9087 8.99961 23.739C9.48647 19.9859 10.4972 17.5762 11.095 17.8967C11.6928 18.2171 11.6065 21.9148 11.9578 25.5386C12.2351 28.355 12.7774 31.005 12.7774 31.005C12.7774 31.005 10.1521 33.4824 8.9195 30.2839Z" fill="url(#paint46_linear_585_3897)"/>
<path style="mix-blend-mode:screen" opacity="0.72" d="M20.093 75.6548C21.6645 78.1692 28.1416 76.8319 35.4446 77.5467C42.7475 78.2616 43.9924 80.6282 45.5331 80.1536C47.0738 79.6791 44.6395 68.6784 33.7313 67.9327C22.8231 67.187 19.6986 75.0323 20.093 75.6548Z" fill="url(#paint47_linear_585_3897)"/>
<path style="mix-blend-mode:screen" opacity="0.72" d="M60.6866 7.59271C60.6866 7.59271 59.3308 5.91026 57.4819 6.36015C55.6331 6.81003 55.5037 12.6339 56.613 12.7818C57.7223 12.9297 58.1906 9.55249 59.0411 9.02865C59.7712 8.70191 60.5789 8.58867 61.3707 8.70202L60.6866 7.59271Z" fill="url(#paint48_linear_585_3897)"/>
<path style="mix-blend-mode:screen" opacity="0.72" d="M3.4707 9.62006C3.78212 9.34523 4.15647 9.1514 4.56065 9.05573C4.96482 8.96006 5.38635 8.9655 5.78792 9.07157C7.39642 9.33041 8.32084 12.6275 9.1405 12.2947C9.96015 11.9619 9.3562 6.63109 7.18688 5.05957C7.18688 5.05957 4.39513 7.45075 3.4707 9.62006Z" fill="url(#paint49_linear_585_3897)"/>
<defs>
<linearGradient id="paint0_linear_585_3897" x1="20.4928" y1="110.993" x2="23.1921" y2="89.5029" gradientUnits="userSpaceOnUse">
<stop stop-color="#CBC1F7"/>
<stop offset="1" stop-color="#E8DCF7"/>
</linearGradient>
<linearGradient id="paint1_linear_585_3897" x1="39.813" y1="114.031" x2="43.295" y2="86.3104" gradientUnits="userSpaceOnUse">
<stop stop-color="#CBC1F7"/>
<stop offset="1" stop-color="#E8DCF7"/>
</linearGradient>
<linearGradient id="paint2_linear_585_3897" x1="22.7051" y1="97.0522" x2="22.7051" y2="88.5783" gradientUnits="userSpaceOnUse">
<stop stop-color="#BE9DEA"/>
<stop offset="1" stop-color="#9E8CEF"/>
</linearGradient>
<linearGradient id="paint3_linear_585_3897" x1="42.4084" y1="97.2493" x2="42.4084" y2="87.1731" gradientUnits="userSpaceOnUse">
<stop stop-color="#BE9DEA"/>
<stop offset="1" stop-color="#9E8CEF"/>
</linearGradient>
<linearGradient id="paint4_linear_585_3897" x1="22.7302" y1="111.276" x2="22.7302" y2="88.6524" gradientUnits="userSpaceOnUse">
<stop stop-color="#9D68C2"/>
<stop offset="1" stop-color="#CCEDFF"/>
</linearGradient>
<linearGradient id="paint5_linear_585_3897" x1="42.4511" y1="113.378" x2="42.4511" y2="87.0934" gradientUnits="userSpaceOnUse">
<stop stop-color="#9D68C2"/>
<stop offset="1" stop-color="#CCEDFF"/>
</linearGradient>
<linearGradient id="paint6_linear_585_3897" x1="7.67325" y1="91.4134" x2="12.3262" y2="54.3625" gradientUnits="userSpaceOnUse">
<stop stop-color="#CBC1F7"/>
<stop offset="1" stop-color="#E8DCF7"/>
</linearGradient>
<linearGradient id="paint7_linear_585_3897" x1="4.94355" y1="91.0619" x2="4.94355" y2="85.1702" gradientUnits="userSpaceOnUse">
<stop stop-color="#BE9DEA"/>
<stop offset="1" stop-color="#9E8CEF"/>
</linearGradient>
<linearGradient id="paint8_linear_585_3897" x1="9.5717" y1="90.7109" x2="9.5717" y2="59.5825" gradientUnits="userSpaceOnUse">
<stop stop-color="#9D68C2"/>
<stop offset="1" stop-color="#CCEDFF"/>
</linearGradient>
<linearGradient id="paint9_linear_585_3897" x1="3.53344" y1="107.092" x2="6.06636" y2="86.9085" gradientUnits="userSpaceOnUse">
<stop stop-color="#CBC1F7"/>
<stop offset="1" stop-color="#E8DCF7"/>
</linearGradient>
<linearGradient id="paint10_linear_585_3897" x1="7.50817" y1="106.986" x2="7.50817" y2="88.9355" gradientUnits="userSpaceOnUse">
<stop stop-color="#BE9DEA"/>
<stop offset="1" stop-color="#9E8CEF"/>
</linearGradient>
<linearGradient id="paint11_linear_585_3897" x1="7.28576" y1="101.397" x2="7.28576" y2="94.4207" gradientUnits="userSpaceOnUse">
<stop stop-color="#8DA4E5"/>
<stop offset="1" stop-color="#755CBB"/>
</linearGradient>
<linearGradient id="paint12_linear_585_3897" x1="7.75521" y1="101.07" x2="9.23429" y2="89.2808" gradientUnits="userSpaceOnUse">
<stop stop-color="#CBC1F7"/>
<stop offset="1" stop-color="#E8DCF7"/>
</linearGradient>
<linearGradient id="paint13_linear_585_3897" x1="10.6936" y1="24.257" x2="10.6936" y2="2.88428" gradientUnits="userSpaceOnUse">
<stop stop-color="#B9ACF4"/>
<stop offset="1" stop-color="#E1D1F5"/>
</linearGradient>
<linearGradient id="paint14_linear_585_3897" x1="9.16615" y1="16.1837" x2="9.16615" y2="2.88428" gradientUnits="userSpaceOnUse">
<stop stop-color="#BE9DEA"/>
<stop offset="1" stop-color="#9E8CEF"/>
</linearGradient>
<linearGradient id="paint15_linear_585_3897" x1="54.7705" y1="24.257" x2="54.7705" y2="2.88428" gradientUnits="userSpaceOnUse">
<stop stop-color="#B9ACF4"/>
<stop offset="1" stop-color="#E1D1F5"/>
</linearGradient>
<linearGradient id="paint16_linear_585_3897" x1="56.3238" y1="14.5009" x2="56.3238" y2="2.88401" gradientUnits="userSpaceOnUse">
<stop stop-color="#BE9DEA"/>
<stop offset="1" stop-color="#9E8CEF"/>
</linearGradient>
<linearGradient id="paint17_linear_585_3897" x1="59.2139" y1="25.2799" x2="59.2139" y2="4.2832" gradientUnits="userSpaceOnUse">
<stop stop-color="#45FFCD"/>
<stop offset="1" stop-color="#22E0FF"/>
</linearGradient>
<linearGradient id="paint18_linear_585_3897" x1="6.25137" y1="25.2799" x2="6.25137" y2="4.2832" gradientUnits="userSpaceOnUse">
<stop stop-color="#45FFCD"/>
<stop offset="1" stop-color="#22E0FF"/>
</linearGradient>
<linearGradient id="paint19_linear_585_3897" x1="30.4271" y1="54.5656" x2="37.2247" y2="0.474538" gradientUnits="userSpaceOnUse">
<stop stop-color="#CBC1F7"/>
<stop offset="1" stop-color="#E8DCF7"/>
</linearGradient>
<linearGradient id="paint20_linear_585_3897" x1="32.6452" y1="39.7377" x2="32.6452" y2="1.88567" gradientUnits="userSpaceOnUse">
<stop stop-color="#0665BD"/>
<stop offset="1" stop-color="#1A1F77"/>
</linearGradient>
<linearGradient id="paint21_linear_585_3897" x1="32.8306" y1="54.0663" x2="32.8306" y2="21.8224" gradientUnits="userSpaceOnUse">
<stop stop-color="#9D68C2"/>
<stop offset="1" stop-color="#CCEDFF"/>
</linearGradient>
<linearGradient id="paint22_linear_585_3897" x1="11.1014" y1="49.8757" x2="53.1196" y2="49.8757" gradientUnits="userSpaceOnUse">
<stop stop-color="#8879EA"/>
<stop offset="1" stop-color="#9E8CEF"/>
</linearGradient>
<linearGradient id="paint23_linear_585_3897" x1="32.0489" y1="51.7431" x2="32.0489" y2="45.6912" gradientUnits="userSpaceOnUse">
<stop stop-color="#8DA4E5"/>
<stop offset="1" stop-color="#755CBB"/>
</linearGradient>
<linearGradient id="paint24_linear_585_3897" x1="31.9426" y1="50.8865" x2="32.7253" y2="44.6128" gradientUnits="userSpaceOnUse">
<stop stop-color="#5E36CC"/>
<stop offset="1" stop-color="#6C4A96"/>
</linearGradient>
<linearGradient id="paint25_linear_585_3897" x1="30.0716" y1="96.368" x2="35.9755" y2="49.3764" gradientUnits="userSpaceOnUse">
<stop stop-color="#CBC1F7"/>
<stop offset="1" stop-color="#E8DCF7"/>
</linearGradient>
<linearGradient id="paint26_linear_585_3897" x1="42.7344" y1="60.0505" x2="48.3302" y2="60.0505" gradientUnits="userSpaceOnUse">
<stop stop-color="#8879EA"/>
<stop offset="1" stop-color="#9E8CEF"/>
</linearGradient>
<linearGradient id="paint27_linear_585_3897" x1="54.6168" y1="64.217" x2="58.2899" y2="34.962" gradientUnits="userSpaceOnUse">
<stop stop-color="#CBC1F7"/>
<stop offset="1" stop-color="#E8DCF7"/>
</linearGradient>
<linearGradient id="paint28_linear_585_3897" x1="10.6009" y1="46.591" x2="10.6009" y2="38.0925" gradientUnits="userSpaceOnUse">
<stop stop-color="#8DA4E5"/>
<stop offset="1" stop-color="#755CBB"/>
</linearGradient>
<linearGradient id="paint29_linear_585_3897" x1="67.035" y1="46.2151" x2="67.035" y2="35.6766" gradientUnits="userSpaceOnUse">
<stop stop-color="#BE9DEA"/>
<stop offset="1" stop-color="#9E8CEF"/>
</linearGradient>
<linearGradient id="paint30_linear_585_3897" x1="44.244" y1="20.7197" x2="44.244" y2="11.6419" gradientUnits="userSpaceOnUse">
<stop stop-color="#45FFCD"/>
<stop offset="1" stop-color="#22E0FF"/>
</linearGradient>
<linearGradient id="paint31_linear_585_3897" x1="20.8438" y1="20.7197" x2="20.8438" y2="11.6419" gradientUnits="userSpaceOnUse">
<stop stop-color="#45FFCD"/>
<stop offset="1" stop-color="#22E0FF"/>
</linearGradient>
<linearGradient id="paint32_linear_585_3897" x1="14.2683" y1="10.7911" x2="52.9893" y2="10.7911" gradientUnits="userSpaceOnUse">
<stop/>
<stop offset="1" stop-color="#6A9BFF"/>
</linearGradient>
<linearGradient id="paint33_linear_585_3897" x1="19.742" y1="36.2744" x2="47.259" y2="36.2744" gradientUnits="userSpaceOnUse">
<stop/>
<stop offset="1" stop-color="#6A9BFF"/>
</linearGradient>
<linearGradient id="paint34_linear_585_3897" x1="59.6889" y1="23.2955" x2="59.6889" y2="22.4204" gradientUnits="userSpaceOnUse">
<stop stop-color="#9D68C2"/>
<stop offset="1" stop-color="#CCEDFF"/>
</linearGradient>
<linearGradient id="paint35_linear_585_3897" x1="32.4751" y1="96.4483" x2="32.4751" y2="58.6393" gradientUnits="userSpaceOnUse">
<stop stop-color="#9D68C2"/>
<stop offset="1" stop-color="#CCEDFF"/>
</linearGradient>
<linearGradient id="paint36_linear_585_3897" x1="32.1104" y1="95.6779" x2="32.1104" y2="65.8992" gradientUnits="userSpaceOnUse">
<stop stop-color="#BE9DEA"/>
<stop offset="1" stop-color="#9E8CEF"/>
</linearGradient>
<radialGradient id="paint37_radial_585_3897" cx="0" cy="0" r="1" gradientUnits="userSpaceOnUse" gradientTransform="translate(32.7065 91.8263) scale(22.7223)">
<stop stop-color="#45FFCD"/>
<stop offset="1" stop-color="#22E0FF"/>
</radialGradient>
<linearGradient id="paint38_linear_585_3897" x1="31.8195" y1="58.2387" x2="31.8195" y2="49.0253" gradientUnits="userSpaceOnUse">
<stop stop-color="#8DA4E5"/>
<stop offset="1" stop-color="#755CBB"/>
</linearGradient>
<linearGradient id="paint39_linear_585_3897" x1="32.8316" y1="94.7902" x2="32.8316" y2="89.6319" gradientUnits="userSpaceOnUse">
<stop stop-color="#D4E2FF"/>
<stop offset="1"/>
</linearGradient>
<linearGradient id="paint40_linear_585_3897" x1="56.6444" y1="63.5267" x2="56.6444" y2="36.5089" gradientUnits="userSpaceOnUse">
<stop stop-color="#9D68C2"/>
<stop offset="1" stop-color="#CCEDFF"/>
</linearGradient>
<linearGradient id="paint41_linear_585_3897" x1="69.0925" y1="44.1446" x2="71.8411" y2="22.2604" gradientUnits="userSpaceOnUse">
<stop stop-color="#CBC1F7"/>
<stop offset="1" stop-color="#E8DCF7"/>
</linearGradient>
<linearGradient id="paint42_linear_585_3897" x1="68.7478" y1="36.94" x2="68.7478" y2="22.4204" gradientUnits="userSpaceOnUse">
<stop stop-color="#BE9DEA"/>
<stop offset="1" stop-color="#9E8CEF"/>
</linearGradient>
<linearGradient id="paint43_linear_585_3897" x1="68.2863" y1="34.2899" x2="68.2863" y2="25.8838" gradientUnits="userSpaceOnUse">
<stop stop-color="#8DA4E5"/>
<stop offset="1" stop-color="#755CBB"/>
</linearGradient>
<linearGradient id="paint44_linear_585_3897" x1="65.0374" y1="36.0956" x2="66.572" y2="23.8993" gradientUnits="userSpaceOnUse">
<stop stop-color="#CBC1F7"/>
<stop offset="1" stop-color="#E8DCF7"/>
</linearGradient>
<linearGradient id="paint45_linear_585_3897" x1="71.4047" y1="38.3144" x2="71.4047" y2="30.2657" gradientUnits="userSpaceOnUse">
<stop stop-color="#BE9DEA"/>
<stop offset="1" stop-color="#9E8CEF"/>
</linearGradient>
<linearGradient id="paint46_linear_585_3897" x1="10.5303" y1="31.9014" x2="11.49" y2="17.8954" gradientUnits="userSpaceOnUse">
<stop/>
<stop offset="1" stop-color="#00E3FF"/>
</linearGradient>
<linearGradient id="paint47_linear_585_3897" x1="20.056" y1="74.0463" x2="45.9522" y2="74.0463" gradientUnits="userSpaceOnUse">
<stop/>
<stop offset="1" stop-color="#D4E2FF"/>
</linearGradient>
<linearGradient id="paint48_linear_585_3897" x1="55.8734" y1="9.534" x2="61.3398" y2="9.534" gradientUnits="userSpaceOnUse">
<stop/>
<stop offset="1" stop-color="#D4E2FF"/>
</linearGradient>
<linearGradient id="paint49_linear_585_3897" x1="3.4707" y1="8.68947" x2="9.49178" y2="8.68947" gradientUnits="userSpaceOnUse">
<stop stop-color="#D4E2FF"/>
<stop offset="1"/>
</linearGradient>
</defs>
</svg>
